<?xml version="1.0" standalone="no"?>
<!DOCTYPE svg PUBLIC "-//W3C//DTD SVG 20010904//EN"
 "http://www.w3.org/TR/2001/REC-SVG-20010904/DTD/svg10.dtd">
<svg version="1.0" xmlns="http://www.w3.org/2000/svg"
 width="2481.000000pt" height="1749.000000pt" viewBox="0 0 2481.000000 1749.000000"
 preserveAspectRatio="xMidYMid meet">

<g transform="translate(0.000000,1749.000000) scale(0.100000,-0.100000)"
fill="#000000" stroke="none">
<path d="M6005 11799 c-719 -68 -1353 -318 -1870 -738 -403 -327 -728 -761
-924 -1234 -232 -561 -307 -1223 -211 -1860 88 -580 302 -1082 654 -1537 104
-134 351 -383 486 -490 468 -371 1002 -592 1636 -677 164 -22 637 -25 794 -5
663 84 1248 382 1617 825 l73 88 0 -411 0 -410 590 0 590 0 0 1680 0 1680
-1440 0 -1440 0 0 -620 0 -620 620 0 c341 0 620 -3 620 -6 0 -4 -19 -34 -41
-68 -333 -490 -959 -749 -1619 -671 -493 58 -909 291 -1190 665 -83 112 -195
331 -239 470 -160 509 -124 1095 93 1545 87 180 182 312 325 456 181 181 370
300 608 382 356 124 784 128 1142 10 110 -36 292 -125 390 -191 235 -157 431
-410 526 -676 l33 -91 873 -3 c481 -1 879 0 886 2 14 6 -34 195 -90 361 -315
925 -1060 1644 -2042 1970 -240 80 -435 124 -710 161 -134 18 -599 26 -740 13z"/>
<path d="M19246 11638 c-3 -46 -8 -217 -12 -380 l-6 -298 99 0 98 0 109 250
109 250 238 0 239 0 0 -979 0 -978 -87 -12 c-49 -6 -134 -16 -190 -23 l-103
-12 0 -103 0 -103 725 0 726 0 -3 103 -3 102 -187 24 -188 25 0 978 0 978 236
-2 236 -3 108 -250 108 -250 97 -3 97 -3 -7 383 c-4 211 -9 385 -11 387 -2 2
-90 -4 -196 -13 -269 -22 -1767 -23 -2018 -1 -91 8 -175 15 -187 15 -20 0 -22
-6 -27 -82z"/>
<path d="M9940 10995 l0 -705 930 0 930 0 0 -2470 0 -2470 775 0 775 0 0 2470
0 2470 925 0 925 0 0 705 0 705 -2630 0 -2630 0 0 -705z"/>
<path d="M16490 11587 l0 -104 133 -22 c72 -12 140 -25 150 -27 16 -5 17 -60
17 -969 l0 -964 -42 -6 c-24 -3 -95 -14 -158 -23 l-115 -17 -3 -102 -3 -103
706 0 706 0 -3 102 -3 103 -180 22 c-99 12 -188 22 -197 22 -17 1 -18 55 -18
997 l0 997 76 -6 c319 -27 523 -215 550 -507 20 -232 -89 -438 -281 -530 -44
-21 -106 -44 -137 -50 l-58 -11 0 -74 c0 -57 3 -74 16 -79 9 -3 75 -6 149 -6
202 0 370 35 531 110 289 134 450 353 462 630 15 344 -206 573 -649 675 -172
39 -301 45 -986 45 l-663 0 0 -103z"/>
<path d="M16210 8400 l0 -290 2810 0 2810 0 0 290 0 290 -2810 0 -2810 0 0
-290z"/>
</g>
</svg>
