<svg xmlns="http://www.w3.org/2000/svg" viewBox="21 281 602 81">
<path d="M581.4,305.5c-3.3-16-20.2-22.6-40.9-23.5c-26.3-1.4-52.2,3.3-58.7,14.6c-5.2,7.5-7.5,37.1,0,50.3c0.9,0.9,8,17.4,61.1,13.6
	c37.1-0.9,36.6-23,36.6-24c-3.3,0-16.4,0-16.4,0c-0.5,6.6-7.5,11.7-14.1,13.6c-7,1.4-17.9,3.3-32.9,0.9
	c-21.1-4.2-21.1-19.7-21.1-26.3c0.9,0,86.9,0,86.9,0C582.4,323.4,582.4,310.2,581.4,305.5z M564.1,315.8H495
	c-0.9-19.7,15.5-24,24.9-24.9c1.9-0.5,13.6-1.4,22.6,0C567.3,294.7,564.1,315.8,564.1,315.8z M156.7,283.4h17.9v74.7h-17.9V283.4z
	 M133.2,283.4h-19.3l-36.6,57.8l-35.2-57.8H21.8l43.7,74.7h20.2L133.2,283.4z M311.7,283.4h-16.9v56.4l-63.9-56.4h-18.8v74.7h15.5
	v-55.9l63.9,55.9h20.2V283.4z M447.1,331.8h-16.4c0,20.7-34.8,19.3-34.8,19.3c-36.6,0-33.8-30.1-33.8-30.1
	c0-32.9,33.4-31,33.4-31c36.6,0,35.2,20.2,35.2,20.2h16.9c0-31.5-51.7-28.7-51.7-28.7c-55.4,0-52.2,39.5-52.2,39.5
	c0,43.2,52.2,39.5,52.2,39.5C453.6,360.5,447.1,331.8,447.1,331.8z"/>
</svg>
