<?xml version="1.0" encoding="UTF-8"?>
<svg id="Layer_2" data-name="Layer 2" xmlns="http://www.w3.org/2000/svg" viewBox="0 0 208.41 53.24">
  <g id="Camada_1" data-name="Camada 1">
    <g id="ay7F7K.tif">
      <g>
        <polygon points="208.41 .58 208.41 7.62 193.49 7.55 193.49 22.88 206.46 22.88 206.46 29.92 193.49 29.92 193.49 45.31 208.41 45.38 208.41 52.8 186 52.78 186 .46 208.41 .58"/>
        <path d="M172.67,39.06c0,2.23-.37,4.2-1.07,6.15-1.04,2.92-3.12,5.15-5.96,6.36-2.08.86-4.21,1.22-6.5,1.22h-10.75s0-52.32,0-52.32l12.02.02c1.75,0,3.35.43,4.97.98,5.21,2.11,7.3,6.97,7.3,12.45v25.14ZM165.15,39.58V13.52c0-1.43-.29-2.68-.93-3.9-.79-1.18-2.07-1.99-3.55-2.01l-4.78-.06v38.17s3.54.01,3.54.01l2.11-.25c2.68-.68,3.61-3.09,3.61-5.92Z"/>
        <path d="M97.55,50.42c-4.9,3.83-11.95,3.79-16.66-.32-2.38-2.08-4.02-5.2-4.02-8.49l.02-30.02c0-4.5,2.87-8.38,6.75-10.26,4.36-2.1,9.37-1.65,13.3,1.04,2.97,2.11,4.6,5.29,5.01,8.95v30.55c-.38,3.41-1.72,6.36-4.4,8.56ZM92.24,44.95c1.32-.81,2.19-2.26,2.19-3.85l-.02-29.02c0-2.82-2.45-4.57-5.01-4.57-2.88,0-5.07,1.99-5.07,4.97v28.22c0,1.74.74,3.33,2.17,4.22,1.72,1.07,3.95,1.13,5.75.03Z"/>
        <path d="M56.82,40.93l.03-10.35h-5.96s0-6.61,0-6.61h13.49s-.1,17.76-.1,17.76c-.02,3.36-1.68,6.46-4.22,8.55-4.75,3.92-11.79,3.94-16.55,0-2.54-2.1-4.24-5.27-4.25-8.68l-.09-28.76c-.02-5.35,2.67-9.91,7.62-11.88,2.05-.81,4.18-1.14,6.36-.9,6.22.69,10.7,5.18,11.15,11.45l.05,3.95h-7.51c0-1.3.06-2.57-.09-3.77-.33-2.62-2.42-4.19-5-4.19s-5,1.75-5.01,4.57l-.03,28.89c0,1.64.84,3.13,2.16,3.96,1.8,1.13,4.1,1.1,5.87-.05,1.28-.84,2.07-2.31,2.08-3.94Z"/>
        <path d="M19.95,41.53h-10.22s-2.22,11.26-2.22,11.26H0S11.71.45,11.71.45h6.27s11.7,52.32,11.7,52.32l-7.52.02-2.21-11.27ZM18.57,34.49l-3.77-19.05-3.75,19.07h7.52Z"/>
        <polygon points="137.25 45.32 137.28 52.79 114.9 52.78 114.9 .46 122.35 .44 122.35 45.31 137.25 45.32"/>
      </g>
    </g>
  </g>
</svg>