<?xml version="1.0" encoding="UTF-8"?>
<svg id="Layer_2" data-name="Layer 2" xmlns="http://www.w3.org/2000/svg" viewBox="0 0 345.11 31.45">
  <g id="Camada_1" data-name="Camada 1">
    <g>
      <path d="M340.07,30.79c-8.08,1.13-19.65,1.43-18.37-4.39l5.61-.05c3.19,2.3,6.83,2.09,10.76.84l.62-5.5c-4.21,3.88-13.11,3.71-16.14.44-2.12-3.25-2.31-10.38.11-13.67,3.43-3.3,9.65-2.32,13.7-1.16l2.26,2,.42-2.57,6.06.06v18.86c-.01,2.81-2.09,4.73-5.03,5.14ZM338.49,20.05l-.06-8.98c-3.96-.6-6.71-.69-10.33.1-.37,3.24-.33,5.48.04,8.82l10.36.07Z"/>
      <polygon points="257.84 6.82 264.29 6.78 258.02 24.37 249.25 24.41 245.36 13.1 241.52 24.38 232.83 24.39 226.49 6.8 233.24 6.79 237.64 20.64 242.37 6.75 248.8 6.77 253.49 20.54 257.84 6.82"/>
      <path d="M165.27,22.46c.28.99-11.24,4.98-15.59.09-2.91-3.27-2.14-11.01-.07-14.37,3.83-2.81,9.14-1.99,13.14-1.09l2.7,1.88.11-8.97,6.47.07v24.28s-6.2.06-6.2.06l-.56-1.95ZM165.38,19.44c.14-2.82.06-5.62-.18-8.26-3.94-.8-6.48-.78-10.34,0l.06,8.7c3.81.88,6.97,1.31,10.46-.45Z"/>
      <path d="M267.2,23.35c-2.24-1.84-1.78-7.13-.12-8.88,4.7-2.04,10.14-1.93,15.08.53.05-1.32-.11-3.24-.44-4.98-2.71-.53-5.99-.96-8,.03-2.59,1.27-4.55,1.64-7.48.8,1.31-5.78,11.92-5.02,19.18-3.78,1.54.26,3.29,2.57,3.29,4.03v13.29s-5.96-.11-5.96-.11c-.29,0-.9-1.51-.69-1.71-2.94,2.71-10.76,2.99-14.87.77ZM280.7,21.24c.69,0,1.72-1.61,1.69-2.2-.15-2.97-5.44-3.09-9.34-1.99-1.21.34-.78,4.16.36,4.17l7.29.03Z"/>
      <path d="M92.45,14.99c2.11-2.61,10.53-2.47,15.47-.01l-.56-4.96c-2.76-.53-5.91-.9-7.98.12-2.27,1.12-3.95,1.31-7.12,1.09-.36-5.81,10.95-5.63,18.63-4.18,2.3.44,3.47,2.68,3.46,4.69l-.05,12.49c-2.55.36-4.88.44-7.01-.82-4.22,1.25-9.76,2.45-14.4.03-1.9-1.44-2.16-6.32-.43-8.46ZM107.21,20.84c.85-.26.72-3.55,0-3.93-2.83-.44-6.24-.44-9.05.14-.23,1.28-.06,3.09.41,4.07,2.66.35,6.1.5,8.65-.28Z"/>
      <path d="M1.29,23.36c-1.79-2.01-1.64-7.04-.03-8.9,4.89-1.98,10.1-1.9,15.17.54.05-1.3-.1-3.28-.42-4.96-7.15-2.15-9.61,2.24-15.07,1.16-.27-1.57,1.12-3.86,3.09-4.21,7.59-1.33,18.99-1.38,18.95,4.14l-.09,13.27c-3.25.16-5.3-.15-7.15-.94-4.4,1.33-9.8,2.32-14.46-.1ZM15.87,20.84c.87-.25.73-3.57-.08-3.91-2.63-.45-6.25-.46-8.96.1-.18,1.35-.05,3.09.33,4.11,2.82.32,6.08.48,8.71-.29Z"/>
      <path d="M193.65,19.31l6-.1c.24,2.45-1.52,4.7-4.3,5.06-7.74,1-18.39,1.19-18.39-4.77v-7.73c.02-6.16,9.96-6.01,17.97-5.01,1.47.18,4.38,2.04,4.5,3.42l.54,6.36-16.52.06c-.01,1.36.05,3.12.55,3.76.93,1.2,7.6,1.93,9.66-1.07ZM193,13.63c.36-.66,0-3.37-.91-3.6-1.77-.46-5.25-.5-7.36-.05-.96.2-1.5,2.73-1.23,3.66h9.51Z"/>
      <path d="M56.66,19.38l5.83-.16c.8,6.4-10.44,6.11-18.4,4.98-2.23-.32-4.24-2.49-4.23-4.69l.04-8.5c0-1.3,2.08-3.72,3.49-3.97,6.82-1.19,17.46-1.26,18.62,2.51.69,2.22.77,4.71.75,7.05h-16.45c0,1.36.08,3.2.63,3.8,1.11,1.23,7.46,1.83,9.72-1.02ZM56.07,13.64c.06-1.3-.3-3.4-1.03-3.61-1.8-.54-5.83-.57-7.72.09-.79.28-1.13,2.78-.95,3.52h9.7Z"/>
      <path d="M128.22,10.99c-.85.16-1.89,2.51-1.88,3.45l.03,9.92h-6.45s-.01-17.6-.01-17.6l6.01-.08.71,2.6c4.19-5.06,16.38-3.33,16.41,1.18l.1,13.93-6.47-.02-.29-13.39c-2.99-.42-5.23-.53-8.17,0Z"/>
      <path d="M300.38,12l-.39,12.38-6.4.03V6.78s6.13-.1,6.13-.1l.71,2.59c4.03-4.98,16.38-3.58,16.39,1.83l.02,13.32-6.43-.06-.22-12.89c-2.86-1.42-6.8-1.45-9.79.53Z"/>
      <polygon points="89.09 24.27 81.8 24.47 76.69 18.02 71.57 24.35 64.75 24.33 72.41 15.25 65.36 6.86 72.57 6.65 76.96 12.21 81.5 6.79 88.37 6.84 81.29 15.05 89.09 24.27"/>
      <path d="M211.34,13.67v10.68s-6.52.06-6.52.06l.02-17.64,5.87-.1,1,2.03c3.43-3.07,8.02-2.82,12.03-.89l.65,5.51-5.77-.03c-.25-1-.44-2.37-.97-2.44l-2.52-.31c-2.08-.26-3.78,1.19-3.78,3.13Z"/>
      <polygon points="34.92 24.32 28.35 24.38 28.29 .02 34.92 .03 34.92 24.32"/>
    </g>
  </g>
</svg>