<?xml version="1.0" encoding="UTF-8"?>
<svg id="Layer_2" data-name="Layer 2" xmlns="http://www.w3.org/2000/svg" viewBox="0 0 267.03 27.32">
  <g id="Camada_1" data-name="Camada 1">
    <g>
      <path d="M183.31,17.89c.61,2.77-.23,5.78-2.42,7.54-1.45,1.16-3.46,1.78-5.36,1.8l-11.22.09V.86s10.73.08,10.73.08c2.16.02,4.29.9,5.6,2.48s1.85,3.44,1.49,5.4c-.32,1.73-1.38,3.41-3.26,4.38,2.26.84,3.9,2.27,4.44,4.69ZM178.51,7.92c-.01-2.34-1.77-3.47-3.8-3.63l-6.68-.05v7.6s7.25-.11,7.25-.11c2.02-.03,3.44-1.8,3.23-3.8ZM175.39,23.88c2.76-.03,4.36-2.11,4.26-4.54s-1.95-4.02-4.44-4.05l-7.18-.08v8.75s7.36-.08,7.36-.08Z"/>
      <polygon points="56.22 27.3 52.86 27.29 39 7 38.95 27.31 35.3 27.3 35.3 .87 38.94 .87 52.5 20.35 52.58 .87 56.22 .87 56.22 27.3"/>
      <polygon points="107.65 27.3 104.29 27.29 90.45 7.02 90.39 27.31 86.72 27.29 86.72 .87 90.37 .88 103.95 20.4 104.04 .87 107.65 .87 107.65 27.3"/>
      <polygon points="233.11 27.3 229.76 27.29 215.92 6.99 215.83 27.3 212.2 27.3 212.2 .87 215.83 .87 229.4 20.35 229.46 .87 233.11 .87 233.11 27.3"/>
      <path d="M263.22,15.9h-6.63s0-3.12,0-3.12h10.41s.03,13.03.03,13.03c-7.12,2.4-15.81,2.5-20.37-3.72-2.37-3.67-2.96-8.11-1.81-12.33,2.48-9.1,12.88-11.54,21.36-8.54l-.92,3.18c-1.94-.87-3.96-1.18-6.15-1.19-6.58-.03-10.82,3.96-10.8,10.53,0,2.88.81,5.62,2.87,7.67,3.02,3,7.67,3.27,11.99,2.24l.03-7.74Z"/>
      <polygon points="136.62 15.4 124.86 15.4 124.87 23.94 139.15 23.94 139.15 27.31 121.03 27.31 121.03 .86 138.05 .86 138.06 4.26 124.86 4.25 124.86 11.96 136.62 11.94 136.62 15.4"/>
      <path d="M17.24,19.46l-9.97-.02-3.24,7.88-4.04-.04L12.05.66l12.98,26.6-4.32.06-3.47-7.87ZM16.04,16.24l-3.93-8.1-3.52,8.16,7.45-.05Z"/>
      <polygon points="73.4 27.27 69.57 27.31 69.57 .87 73.4 .87 73.4 27.27"/>
      <polygon points="198.82 27.27 195.07 27.31 195.07 .87 198.82 .87 198.82 27.27"/>
    </g>
  </g>
</svg>