<?xml version="1.0" encoding="UTF-8"?>
<svg id="Layer_2" data-name="Layer 2" xmlns="http://www.w3.org/2000/svg" viewBox="0 0 321.34 37.6">
  <g id="Camada_1" data-name="Camada 1">
    <g>
      <polygon points="159.77 37.08 148.49 37.09 140.23 14.35 137.66 6.37 137.86 14.38 137.87 37.09 130.93 37.08 130.93 .74 142.72 .74 150.71 22.73 152.95 30.62 152.9 22.4 152.9 .74 159.77 .74 159.77 37.08"/>
      <path d="M17.99,18.06c1.66.35,3.05.63,4.39,1.45,3.72,2.3,4.29,6.94,3.22,10.97-.71,2.66-2.59,4.6-5.16,5.58-1.7.57-3.41.98-5.25.99L0,37.09V.74s15.13.02,15.13.02c1.84,0,3.54.34,5.22.89,4.51,1.67,5.61,5.87,4.85,10.38-.42,2.03-1.62,3.64-3.4,4.67-1.18.65-2.38.93-3.81,1.37ZM15.09,6.61c-.74-.18-1.53-.33-2.3-.33h-4.98s0,9.15,0,9.15l5.54-.04c1.26,0,2.52-.52,3.33-1.44,1.69-1.93,1.44-6.4-1.58-7.33ZM18.1,24.34c-.35-1.38-1.27-2.35-2.57-2.89-.87-.27-1.81-.49-2.75-.49h-4.98s0,10.65,0,10.65h5.13c.91-.01,1.82-.28,2.65-.55,2.62-1.12,3.18-4.08,2.52-6.72Z"/>
      <path d="M276.1,31.16v-8.19s-5.12,0-5.12,0v-5.82s12.58,0,12.58,0v18.22c-5.93,2.26-13.34,3.1-19.31,1.1-3.03-1.07-5.28-3.3-6.34-6.34-.73-2.09-1.13-4.22-1.13-6.48v-9.16c0-2.43.48-4.72,1.36-6.94,1.26-3.19,3.7-5.59,7-6.64s7.02-1.2,10.49-.42c4.92,1.11,8.06,4.84,8.05,9.89h-7.67s-.47-2.15-.47-2.15c-1.05-2.83-4.74-3.19-7.15-1.98-1.34.67-2.17,1.92-2.65,3.34-.59,1.76-.88,3.6-.88,5.49v8.52c0,1.57.27,3.08.7,4.55.61,2.04,2.15,3.42,4.26,3.73s4.18.22,6.26-.73Z"/>
      <path d="M310.86,28.95h-11.19s-2.31,8.14-2.31,8.14h-7.74S299.94.74,299.94.74h11.15s10.25,36.34,10.25,36.34h-8.17s-2.31-8.13-2.31-8.13ZM306.6,11.13l-1.26-4.75-4.31,16.95h8.66s-3.1-12.2-3.1-12.2Z"/>
      <path d="M241.28,28.95h-11.19s-2.31,8.13-2.31,8.13h-7.74S230.35.74,230.35.74h11.15s10.25,36.33,10.25,36.33l-8.16.02-2.31-8.14ZM240.11,23.32l-3.58-14.04c-.22-1.02-.34-1.96-.76-2.93l-4.31,16.97h8.65Z"/>
      <path d="M52.81,28.95h-11.2s-2.31,8.14-2.31,8.14h-7.74S41.9.74,41.9.74h11.14s10.26,36.34,10.26,36.34h-8.17s-2.32-8.13-2.32-8.13ZM48.91,12.5l-1.6-6.14-4.31,16.97h8.67s-2.75-10.83-2.75-10.83Z"/>
      <polygon points="119.28 21.16 107.23 21.17 107.23 31.25 120.52 31.24 120.53 37.09 99.48 37.08 99.47 .67 120.01 .66 119.99 6.5 107.23 6.5 107.23 15.27 119.28 15.27 119.28 21.16"/>
      <path d="M185.11,31.87c2.67-.57,3.31-3.14,3.42-5.64h7.79c-.11,3.94-1.38,7.4-4.69,9.44-3.44,2.08-8.56,2.31-12.46,1.5-3.58-.74-6.45-2.95-7.92-6.29-.98-2.22-1.58-4.56-1.58-7.03v-9.95c0-2.46.61-4.8,1.59-7.02,1.36-3.06,3.87-5.22,7.13-6.09,3.44-.92,7.06-.8,10.49.1,4.83,1.54,7.08,5.14,7.13,10.14h-7.8c-.08-1-.18-1.93-.5-2.82-.79-2.18-2.89-2.67-5.17-2.44-1.76.18-3.12,1.27-3.76,2.94-.61,1.57-.96,3.24-.96,4.98v10.11c-.01,1.79.31,3.51.93,5.14,1.02,2.69,3.5,3.54,6.34,2.93Z"/>
      <polygon points="91.48 31.25 91.48 37.09 71.23 37.08 71.23 .74 78.96 .74 78.96 31.25 91.48 31.25"/>
      <polygon points="212.3 37.07 204.56 37.1 204.56 .74 212.3 .74 212.3 37.07"/>
    </g>
  </g>
</svg>