<?xml version="1.0" encoding="UTF-8"?>
<svg id="Layer_2" data-name="Layer 2" xmlns="http://www.w3.org/2000/svg" viewBox="0 0 146.1 67.96">
  <g id="Camada_1" data-name="Camada 1">
    <g>
      <path d="M73.44,0l.57,2.59-2.05,8.46c-1,4.12-1.9,8.12-2.49,12.27l-.48,3.38c-1.36,9.61-1.26,24.6,3.67,33.04.58,1,1.25,2.11,2.2,2.77,2.34,1.64,5.86-2.94,7.53-5.44-.8-3.1-.7-5.87-.19-8.88.95-5.56,3.44-10.7,7.54-14.55.87-.82,2.33-1.13,3.18-.33,1.64,1.54,2.11,3.74,2.11,5.92,0,4.73-1.75,8.3-4.1,12.27l-4.39,7.09c.02,1.14,1.43,2.63,2.4,2.74.76.09,1.79-.15,2.39-.69,3.16-2.86,5.71-6.16,8.41-9.48l4.39-5.4,4.32-4.85c.46-.51,1.33-.73,1.97-.68.48.04,1.2.5,1.41,1.13.18.53-.16,1.28-.28,1.82l-1.26,5.54-1.81,8.41c-.15.7.13,1.54.89,1.65l3.91-6.87c1.63-2.86,3.72-5.24,6.16-7.41,1.26-1.12,2.65-1.95,4.4-1.58,1.46.3,2.84.96,3.82,2.21,4.9,6.31,5.9,12.54,8.69,16.17.58.75,1.75,1.52,2.63.9,1.83-1.28,3.42-2.78,5.07-4.28.55-.5,1.33-.8,2.01-.6l.04,2.45-1.31.48c-1.34.49-2.55,1.16-3.6,2.2l-3.2,3.18c-.36.36-1.06.68-1.57.66-.41-.02-1.03-.49-1.42-.88-2.06-2.06-3.28-4.68-4.38-7.36l-1.28-3.13c-1.07-2.61-3.53-7.91-5.81-8.09-2.4-.19-4.7,2.13-6.25,4.09-2.55,3.23-4.2,6.87-5.59,10.73l-2.07,5.74c-.26.72-1.55.57-2.11.34s-1.05-.77-1.26-1.5c-1.28-4.32-1.42-8.77-.63-13.21l.93-5.23c-.98.8-1.32,1.47-1.89,2.3-2.95,4.26-5.94,8.41-9.4,12.28-1.28,1.44-2.68,2.53-4.31,3.51s-3.56.51-4.89-.81c-.92-.91-1.53-2.02-2.27-3.31l-4.75,4.38c-1.15,1.07-2.63,1.96-4.21,1.38s-2.55-1.84-3.53-3.06c-4.09-5.09-4.18-10.09-5.43-16.36-1.02,4.42-2.1,8.28-4.21,12.02-1.24,2.2-2.49,4.24-4.63,5.8-1.94,1.42-4.94,1.1-6.72-.63-3.5-3.39-.15-13.54,3.16-17.73,1.89-2.86,3.95-5.39,6.41-7.74.12-.17.45-.55.35-.69l-.49-.67c-2.4-1.1-4.83-1.95-7.39-2.73-3.2-.81-7.46-1.82-10.44-.93-.02.84.19,1.52.29,2.3.85,6.36.98,12.7.62,19.1-.25,4.37-1.58,10.93-5.99,11.58-1.59.23-3.4-.24-4.44-1.56-1.12-1.44-1.67-3.32-1.79-5.16-.66-10.62.91-14.97,5.05-24.36.54-1.23,1.17-2.28,1.54-3.63s1.29-2.87,2.74-3.16c5.15-1.03,13.93,2.51,19.1,4.71l4.78,2.03c.87-.95.98-1.97,1.13-3.15l.65-5.07,1.1-9.52C67.45,12.46,68.75,6.18,70.59,0h2.85ZM85.49,53.99c2.36-2.59,4.11-5.22,5.58-8.09,1.32-2.77,2.72-7.53.26-8.83-.32.27-.81.69-1.03,1.06-1.94,3.24-3.43,6.6-4.29,10.26-.26,1.86-.95,3.55-.52,5.59ZM39.22,56.67l.53-3.87c.6-4.39.9-9.43-.34-13.68-1.08.83-1.52,1.72-2.08,2.78-2.62,4.93-4.04,13.7-3.48,19.33.09.93.92,2.18,1.95,1.83,2.03-.69,3.08-4,3.41-6.38ZM59.55,56.27l1.86-5.3c.8-2.28,2.06-7.57,1.15-7.49-1.44.12-3.76,2.48-4.8,4.05-2.03,3.04-3.63,6.27-4.8,9.73-.67,1.99-1.11,4.85.32,5.32,2.24.73,5.16-3.13,6.27-6.29Z"/>
      <path d="M16.96,0l.89.28c3.68.77,5.87,4.32,6.31,7.88,1.21,9.99-4.07,18.7-10.02,26.26-.77.98-1.55,1.86-2.1,3.19,4.32-1.54,8.43-1.96,12.5-.36,2.7,1.06,4.85,3.24,5.18,6.17.28,2.48-.19,4.76-1.19,6.99-1.54,3.4-3.35,6.66-6.05,9.31s-5.78,4.6-9.14,6.19c-1.69.81-3.52,1.26-5.37,1.66-.92.2-1.85.17-2.83.22-.71.04-1.89.19-2.37-.39-.63-.75-.3-1.78.22-2.49.37-.5,1.31-1.15,2.17-.98,4.86.98,9.86-1.49,13.15-5,3.67-3.93,6.27-8.77,7.15-14.09.45-2.72-1.21-5.26-3.95-5.77-6.33-1.17-11.71,2.34-16.71,5.95l-.14,3.13-.52,9.82-.16,2.44c-.02.35-.2.9-.4,1.11-.24.24-1.06.39-1.39.29-2.45-.73-1.65-3.39-2.21-5.82v-16.32c.16-.53.28-1.24.32-1.86l.44-5.93c.41-5.6.59-11.03.34-16.6-.07-1.53.18-3.27,1.29-3.72.35-.14,1.22-.03,1.37.15l.4,3.15.93-2.76c.94-2.8,2.1-5.53,3.92-7.86,1.25-1.6,2.63-3.19,4.57-3.8l1.18-.43h2.2ZM5.25,39.29c3.77-4.15,6.84-8.19,9.68-12.6l3.01-5.6c.74-1.37,1.23-2.78,1.75-4.25,1.22-3.49,1.38-8.7-.02-11.95-.33-.78-.92-1.62-1.49-1.87-.76-.33-1.77-.27-2.48.14-4.62,2.65-7.98,11.71-9.18,17.12l-.8,3.6c-.94,4.25-.6,6.68-.57,10.58,0,1.6-.28,3.14.11,4.81Z"/>
    </g>
  </g>
</svg>