<?xml version="1.0" encoding="UTF-8"?>
<svg id="Layer_2" data-name="Layer 2" xmlns="http://www.w3.org/2000/svg" viewBox="0 0 337 25.23">
  <g id="Camada_1" data-name="Camada 1">
    <g>
      <path d="M209.81.47h4.84s.46.15.46.15c.58.18-1.86.18-2.35,1.49l-1.21,3.29-4.76,15.39-1.34,3.97c-.05.14-.29.4-.4.46-.14.08-.5-.3-.56-.46l-6.38-19.13-6.8,19.14c-.06.16-.43.51-.57.44s-.41-.36-.46-.56l-6.19-21.84c-.42-1.23-1.28-1.98-2.6-1.87l-.35-.19c-.1-.06.27-.29.35-.29h6.74s.41.05.41.05c.07,0,.16.26.09.28l-.51.1-1.03.24c-.27.06-.4.79-.33,1.09l1.74,7.27,2.9,10.9L198.75.24l6.84,20.17,3.97-13.73,1.09-4.44c.05-.2-.05-.74-.18-.89-.15-.18-.56-.31-.84-.37l-1.22-.27c.66-.19.9-.21,1.41-.23Z"/>
      <path d="M133.04,24.41c-.53.37-.75.34-1.21.34h-6.3c-1.11-.73,1.47.02,1.59-1.67l.22-3.23.02-7.97h-13.18s.1,10.35.1,10.35c0,.52.27,1.67.74,1.77l2.17.42c-.2.17-.58.32-.88.32l-6.96-.05c.52-.56,1.24-.44,1.73-.73.36-.99.52-1.99.52-3.08V2.8c0-.5-.24-1.21-.54-1.43-.35-.27-1-.42-1.47-.46l-.44-.04c-.08,0-.18-.26-.1-.28l.51-.13h6.47c.31-.03.41.5,0,.42-.48.09-1.06.2-1.3.4-.26.21-.51.9-.51,1.3l-.06,8.05h13.19s-.03-7.88-.03-7.88c0-.46-.25-1.2-.55-1.42-.36-.26-1.02-.39-1.49-.43l-.44-.04c-.07,0-.18-.26-.1-.28l.51-.14h6.47c.36-.08.47.52,0,.43-.46.09-1.06.21-1.28.41-.25.23-.51.89-.51,1.32v17.73s.2,2.75.2,2.75c.04.57.62,1,1.11,1.07l1.77.24Z"/>
      <path d="M71.47,19.6c-2.34,3.94-6.47,5.84-10.89,5.59s-7.72-2.56-9.5-6.38c-2.2-4.72-1.78-10.15,1.36-14.34,1.46-1.96,3.45-3.36,5.83-4,5.7-1.54,12.14.82,14.32,6.53,1.57,4.12,1.18,8.76-1.12,12.61ZM69.75,18.41c1.1-3.25,1.11-6.66.27-9.91-1.15-4.49-4.77-7.78-9.55-7.36-3.45.3-6.2,2.53-7.22,5.91-1.89,6.31.11,14.84,6.72,16.62,4.22,1.14,8.35-1.04,9.78-5.27Z"/>
      <path d="M319,14.4l.11,8.12c0,.42.31,1.41.71,1.49l2.06.41c.05.07-.39.31-.6.33l-6.58-.02-.34-.17c-.54-.27,1.85-.06,1.94-1.42l.23-3.3V2.92c-.01-.51-.21-1.23-.52-1.52-.29-.28-1-.44-1.45-.48l-.45-.04c-.08,0-.19-.26-.11-.28l.52-.14h6.56c1.21,0,2.37.08,3.52.32,3.05.72,4.81,3.48,4.34,6.59-.37,2.46-1.74,4.53-3.6,6.29l6.44,8.4c1.29,1.68,2.98,2.17,5.19,2.44-1.72.44-3.33.31-4.98.11-1.25-.15-2.37-1.03-3.1-2.06l-5.73-8.05-4.18-.1ZM325.81,11.34c.9-2.16.89-4.63.06-6.77-1.11-2.85-3.86-3.51-6.88-2.84v11.18c2.75.88,5.72,1.06,6.82-1.58Z"/>
      <path d="M28.28,14.39c.11,2.69-.4,8.85.74,9.57.4.26,1.25.22,1.66.35l.41.13c.11.04-.3.32-.36.31h-6.75s-.35-.17-.35-.17c-.57-.27,1.79,0,1.94-1.44.1-.91.23-1.84.23-2.79V2.92c0-.51-.2-1.23-.51-1.52-.29-.27-1.01-.44-1.45-.48l-.45-.04c-.08,0-.18-.26-.11-.28l.52-.13c2.18.06,4.22.07,6.39,0,1.26-.02,2.49.06,3.69.31,3.16.74,4.89,3.66,4.29,6.86-.44,2.35-1.77,4.3-3.56,6.02,2.13,2.9,4.16,5.73,6.44,8.4,1.38,1.62,2.98,2.17,5.2,2.44-1.72.46-3.33.3-4.99.11-1.15-.13-2.21-.95-2.94-1.87-2.1-2.65-3.88-5.32-5.86-8.21l-4.22-.14ZM35.21,11.04c1.26-3.38.45-8.33-3.08-9.31-1.28-.36-2.65-.31-3.86.07v11.11c3.05.95,5.86,1.04,6.94-1.87Z"/>
      <path d="M287.58,24.57c-2.92.45-5.98.43-7.94-1.77l-9.44-10.6.09,10.11c0,.58.21,1.43.75,1.7.57.29,2.69.36,1.89.59l-.49.14h-6.47c-1.21-.66,1.39-.06,1.52-1.58l.25-2.98V2.83c-.01-.49-.25-1.21-.54-1.44-.35-.28-.99-.42-1.46-.47l-.44-.04c-.08,0-.19-.26-.11-.28l.52-.13h6.3c1.16.73-1.74-.07-1.75,2.01l-.04,9.31,8.33-9.14c.22-.24.51-.87.47-1.15s-.43-.61-.76-.99l5.59-.02h.42c.08,0,.06.25.05.37-1.38.12-2.65.65-3.65,1.68l-8.25,8.6,6.47,7.1,4.78,4.7c1.05,1.03,2.36,1.11,3.93,1.62Z"/>
      <path d="M7.35,24.83c-2.27-.13-4.3-.15-6.55-.08-.34.01-.44-.48.02-.45.42,0,1.24-.19,1.35-.53.3-.96.44-1.88.44-2.89V2.78c0-.45-.22-1.12-.46-1.36C1.35.63-.13,1.26,0,.49l4.83.02c1.52,0,3.01-.15,4.46.16,2.94.64,4.55,3.31,3.78,6.2-.43,1.62-1.44,2.88-2.65,4.19,1.95.71,3.55,1.92,4.48,3.73,1.73,3.35.37,7.5-3,9.18-1.4.7-2.91.95-4.56.85ZM9.1,10.72c.95-.33,1.3-1.44,1.64-2.22.67-2.58-.24-6.19-2.59-6.93-1.01-.32-2.05-.22-3.08.07v9.17c1.34.14,2.72.37,4.03-.08ZM12.95,20.37c.32-2.29-.22-4.52-1.58-6.34-1.82-2.17-3.52-2.25-6.31-2.19l.05,9.75c0,.88.45,1.62,1.3,1.88,1.05.32,2.24.44,3.32.24,1.72-.32,2.97-1.63,3.21-3.34Z"/>
      <path d="M157.18.48h5.27c.28,0,.32.45,0,.41-.53.08-1.07.19-1.32.39-.27.21-.54.89-.54,1.32l-.05,10.87c0,1.95-.15,3.78-.64,5.63-1.35,5.04-6.42,7.1-11.41,5.67-4.47-1.28-5.8-5.46-5.82-9.92l-.04-12.03c0-.47-.23-1.2-.52-1.43-.33-.26-1.02-.43-1.45-.47l-.48-.04c-.11,0,0-.28.1-.39h6.81c.44-.11.53.53,0,.43-.45.07-1.05.19-1.26.4s-.47.83-.47,1.19l-.02,13.21c0,3.92,1.8,7.81,5.8,8.24,3.18.34,5.99-1.43,6.85-4.52.36-1.3.62-2.66.62-4.08V2.79c-.01-1.07-.59-1.76-1.66-1.82-.34-.02-.65-.1-1.15-.28.59-.18.9-.21,1.37-.21Z"/>
      <path d="M85.55,19.11c2.37,3.43,6.16,5,10.22,4.56,1.57-.17,3.07-.54,4-1.9l1.25-2.97c.21,1.79-.26,3.47-.65,5.16-.22.31-.9.66-1.33.75-3.09.66-6.23.72-9.3,0-4.69-1.11-8.04-4.76-8.88-9.45-.6-3.36-.15-6.66,1.53-9.63C85.47.17,91.39-.61,97.3.36l3.76.61-.25,5.68c.05.43-.5.42-.49.01.1-2.22-.97-3.89-2.98-4.63-2.87-1.05-6.12-1.12-9.03.02-1.91.75-3.24,2.38-4.05,4.23-.68,1.56-.86,3.23-.92,4.94-.11,2.84.57,5.5,2.21,7.88Z"/>
      <path d="M223.31,15.27l-1.97,6.1c-.24.74-.38,1.48-.31,2.3.03.38.84.65,1.17.66h.46c.07.01.09.17.04.21l-.27.19h-6.14c-.28.02-.29-.46-.02-.44,1.54.1,2.35-.73,2.96-1.99L226.8.31c.09-.12.29-.36.36-.3l.34.32,6.91,19.05,1.48,3.38c.89,2.02,3.97,1.23,2.76,2.02l-5.99-.12c.36-.54.58-.9.44-1.31l-2.88-8.07-6.91-.02ZM229.82,14.11l-3.18-9.43-2.95,9.44h6.13Z"/>
      <path d="M298.51,23.45c1.37.14,2.73.14,4.08-.02,2.23-.28,1.65-2.46,2.51-3.1l-.38,3.82c-.03.27-.46.61-.73.74l-8.26-.21c-1.27,0-2.36.17-3.71-.1l1.77-.63c.35-.91.52-1.88.52-2.9V2.79c0-.5-.24-1.2-.53-1.43-.36-.27-1-.41-1.48-.45l-.47-.04c-.11-.01-.01-.27.1-.4l10.71.05,1.75-.29-.4,3.75-.04.34c0,.09-.28.2-.31.11s-.11-.41-.1-.52c.04-1-.57-2.01-1.78-2.05l-4.85-.14v9.51s5.48-.09,5.48-.09c.48,0,1-.54,1.52-.91l-.48,4.94c-.3-.45-.33-.83-.38-1.3-.08-.76-.77-1.31-1.55-1.34l-4.59-.15v9.18c.02.98.65,1.79,1.6,1.88Z"/>
      <path d="M257.2,22.16l.8-2c.31,1.49-.13,2.93-.41,4.3-.21.17-.77.42-1.01.41l-8.11-.19c-1.49-.03-2.81.18-4.37-.09l1.75-.64c.38-.9.53-1.88.53-2.91V2.64c0-.86-.53-1.51-1.29-1.62-.5-.07-.89-.14-1.44-.37l3.28-.13,4.45-.04c0,.19.02.39-.06.39l-.46.04c-.39.04-1.06.16-1.33.4s-.52.97-.52,1.46v16.02s.26,3.2.26,3.2c.06.75.73,1.32,1.5,1.42,2.32.3,5.73.52,6.45-1.27Z"/>
    </g>
  </g>
</svg>