<?xml version="1.0" encoding="UTF-8"?>
<svg id="Layer_2" data-name="Layer 2" xmlns="http://www.w3.org/2000/svg" viewBox="0 0 367.34 24.35">
  <g id="Camada_1" data-name="Camada 1">
    <g id="PZ6g8x.tif">
      <g>
        <polygon points="256.39 24 255.67 6.04 250.14 23.42 245.76 23.45 241.02 6.09 240.15 23.95 235.12 23.92 236.65 .44 243.92 .32 248.32 16.49 253.23 .33 260.37 .38 261.7 23.82 256.39 24"/>
        <polygon points="311.11 23.84 305.31 23.96 296.07 7.14 296.16 23.93 291.15 23.94 291.15 .42 297.58 .4 306.31 16.47 305.98 .45 311.11 .36 311.11 23.84"/>
        <polygon points="128.7 24.18 122.95 24.35 113.6 7.26 113.87 24.22 108.78 24.3 108.78 .75 115.27 .81 123.84 16.26 123.67 .8 128.69 .78 128.7 24.18"/>
        <polygon points="206.6 23.87 201.11 23.95 201.11 14.08 192.15 14.07 192.17 23.9 186.68 23.88 186.67 .38 192.13 .35 192.15 9.36 201.11 9.42 201.11 .36 206.58 .37 206.6 23.87"/>
        <path d="M225.49.4l5.45-.03-.26,15.76c-.09,5.25-4.57,8.06-9.46,8.21-5.37.16-9.82-3.03-9.88-8.65l-.15-15.31,5.47.06.12,15.34c.02,2.42,2.07,4.16,4.11,4.28,2.22.12,4.47-1.72,4.49-4.34l.11-15.31Z"/>
        <path d="M279.52,17.94l-7.01-.03-1.7,6.03-5.58-.15,7.29-23.42h7.15s7.46,23.51,7.46,23.51l-5.9.03-1.71-5.98ZM278.62,13.71l-2.77-8.99-2.48,9.2,5.25-.21Z"/>
        <polygon points="102.65 14.37 93.8 14.39 93.8 19.94 103.72 19.94 103.65 24.3 88.34 24.31 88.34 .78 103.14 .76 103.19 5.1 93.85 5.11 93.82 10.01 102.6 9.99 102.65 14.37"/>
        <path d="M83.94,24.32h-18.66c-.07-1.59.18-3.18.87-4.15l10.61-14.96-10.37-.07V.77s17.4.03,17.4.03c.11,1.85-.28,3.49-1.25,4.86l-10.03,14.22,11.46.04-.03,4.41Z"/>
        <path d="M146.32,23.17c-4.22,1.76-8.22,1.35-12.43-.22l1.04-4.34c4.73,1.81,9.34,1.77,9.83-.84.13-.71-.73-2.29-1.42-2.6l-5.48-2.44c-2.5-1.11-3.92-3.78-3.72-6.19.18-2.29,1.84-4.69,4.37-5.66,3.51-1.35,7.01-.94,10.81.11l-1.19,4.44c-4.38-1.84-8.62-1.02-8.56,1.08.02.57.79,1.84,1.34,2.09l5.4,2.38c2.49,1.1,3.96,3.43,4.04,5.77.08,2.48-1.26,5.29-4.03,6.44Z"/>
        <path d="M8.7,18.43c2.67,1.99,5.73,1.54,8.97.85.66.65,1.06,2.82.86,4.17-4.92,1.34-10.44,1.47-14.49-1.92C-1.51,16.89-1.25,7.59,4.25,3.04,8.53-.5,13.8-.56,19.12.9l-1.13,4.24c-3.57-.89-6.74-1.35-9.5.86-3.69,2.95-3.81,9.44.2,12.44Z"/>
        <polygon points="367.34 .49 359.53 14.15 359.52 23.92 354.13 23.87 353.98 14.11 346.52 .37 352.68 .35 357.08 10.5 361.29 .34 367.34 .49"/>
        <polygon points="337.65 23.77 332.17 23.9 332.16 4.88 325.76 4.84 325.82 .37 344.16 .36 344.2 4.86 337.64 4.81 337.65 23.77"/>
        <polygon points="44.55 24.17 39.04 24.3 39.05 5.35 32.59 5.13 32.61 .78 51.09 .76 51.12 5.25 44.54 5.19 44.55 24.17"/>
        <polygon points="322.42 23.75 316.95 23.89 316.94 .45 322.38 .34 322.42 23.75"/>
        <polygon points="28.99 24.19 23.5 24.23 23.49 .8 28.97 .78 28.99 24.19"/>
        <polygon points="60.94 24.16 55.44 24.25 55.44 .82 60.91 .73 60.94 24.16"/>
        <path d="M168.18,10.65c2.06,2.66.58,6.29-1.56,7.94s-5.81,2.35-7.92-.05c-1.98-2.26-.83-5.9,1.14-7.74s6.22-2.9,8.34-.15ZM165.58,13.72c-.24-1.17-.43-1.77-.69-2.21-.19-.33-1.7.04-2.07.26-1.48.89-2.61,4.66-.63,5.67,1.88.95,3.77-1.86,3.38-3.72Z"/>
        <path d="M175.41,11.74l-1.54,7.86-3.29.19,1.15-7.37-1.06-1.89c-.27-.47.95-1.33,1.72-1.73.12-2.78,3.64-5.04,6.04-4.5.38.09,1.07,1.37.77,1.55l-1.44.85c-.75.44-2.05,1.82-2.04,2.2,1.39.45,2.1.65,2.11,1.1.02.74-.7,1.5-2.43,1.75Z"/>
      </g>
    </g>
  </g>
</svg>