<?xml version="1.0" encoding="UTF-8"?>
<svg id="Layer_2" data-name="Layer 2" xmlns="http://www.w3.org/2000/svg" viewBox="0 0 218.26 43.85">
  <g id="Camada_1" data-name="Camada 1">
    <g>
      <path d="M36.79,26.08c-.11,10.82-8.66,17.17-19.29,17.15l-17.5-.02c1.04-1.27,1.96-2.26,1.97-3.28l.03-25.96c0-1.32-.7-2.36-1.85-3.71l15.44-.04c4.83-.01,9.5.42,13.61,2.74,4.96,2.81,7.64,7.46,7.59,13.11ZM32.89,24.89c-.28-5.43-3.33-9.73-8.11-11.7-2.65-1.09-5.74-1.96-8.66-1.94l-9.66.04-.05,30.88c4.23.14,8.48.41,12.48-.24,8.51-1.39,14.46-8.23,14-17.03Z"/>
      <path d="M216.1,16.07v27.24c-.11.12-.97.51-1.13.3l-.73-.95-22.27-21.92-7.29-6.86-.23,23.26c-.02,2.2.6,3.6,1.92,5.79l-6.2-.04c1.48-1.98,2.54-3.52,2.53-5.76l-.1-23.48c0-1.34-2.04-2.41-3.31-3.71l5.84-.09,13.1,12.97c5.02,4.97,9.72,9.44,15.77,14.24l.21-21.69c.02-2.18-.47-3.34-2.27-5.57h6.3c-1.53,2.53-2.23,3.77-2.16,6.25Z"/>
      <path d="M99.14,33.25c-3.2,6.98-10.34,10.5-17.64,10.59s-13.88-2.41-17.76-8.55c-3.24-5.13-3.42-12.06-.24-17.36,3.62-6.04,10.55-9.06,17.48-8.59,5.38-.3,10.32,1.34,14.33,4.92,5.21,4.66,6.89,12.3,3.83,18.99ZM89.15,40.55c4.73-3.25,7.5-7.66,7.86-13.07.61-9-5.71-16.67-14.84-17.5-7.08-.64-13.57,3.84-16.2,9.91-2.87,6.63-1.25,14.16,4.03,18.91s13.23,5.82,19.14,1.75Z"/>
      <path d="M144.27,26.19l-11.92-.03c-.23,4.63-.33,9.17.05,13.79.24,2.89,6.96,2.4,11.63,2s7.25-2.09,10.88-5.09l-1.68,6.31-27.13-.03c1.26-1.99,2.17-3.57,2.17-5.44V13.47c0-.75-.89-1.96-1.68-3.15l24.14-.04.42,4.25c-2.01.29-3.7-3.11-7.7-3.14l-11.34-.08v13.81s12.51-.01,12.51-.01c1.07,0,2.37-1.23,3.92-2.2.24,1.84.23,3.9-.11,5.59-1.37-1.03-2.69-2.3-4.16-2.3Z"/>
      <path d="M88.06,5.71c-3.17-.62-5-2.32-7.53-3.25-2.49.94-4.37,2.57-7.51,3.27l5.48-4.86c1.34-1.19,2.69-1.16,4.02.01l5.52,4.82Z"/>
    </g>
  </g>
</svg>