<?xml version="1.0" encoding="UTF-8"?>
<svg id="Layer_2" data-name="Layer 2" xmlns="http://www.w3.org/2000/svg" viewBox="0 0 255.47 35.09">
  <g id="Camada_1" data-name="Camada 1">
    <g>
      <path d="M178.87,34.81l-6.97.13-8.63-14.91-6.08.1v14.86s-6.09,0-6.09,0V.24s16.37.03,16.37.03c2.13,0,3.9,1.03,5.35,2.44,3.53,3.92,3.83,9.76.73,14.05-.9,1.24-2.07,2.08-3.46,2.75l8.78,15.31ZM165.52,14.42c2.44-.03,3.97-2.13,4.04-4.19.07-1.91-1.34-4.24-3.55-4.26l-8.76-.09v7.43c0,.54.77,1.19,1.29,1.21l6.98-.09Z"/>
      <path d="M99.26.87v34.07s-6.13,0-6.13,0v-15.05s-14.95,0-14.95,0v15.04s-6.13.02-6.13.02V.03s6.07,0,6.07,0v14.22s14.97,0,14.97,0V.03s5.11-.03,5.11-.03c.14-.07,1.05.54,1.05.86Z"/>
      <polygon points="133.42 19.95 119.18 19.96 119.17 29.36 136.21 29.36 136.18 34.99 113.01 34.99 113.02 .09 135.86 .08 135.88 5.73 119.17 5.73 119.18 14.25 133.42 14.25 133.42 19.95"/>
      <path d="M51.46,26.93h-13.52s-2.6,7.99-2.6,7.99h-6.38S40.62.03,40.62.03h8.1s11.68,34.93,11.68,34.93l-6.36.03-2.58-8.07ZM49.6,21.18l-4.93-15.09-4.91,15.14,9.84-.05Z"/>
      <path d="M18.61,14.46c.72.03,1.31.65,1.31,1.22l-.02,4.5H6.12s0,14.81,0,14.81H0S0,.02,0,.02h22.86s0,5.63,0,5.63H6.12s0,8.81,0,8.81h12.49Z"/>
      <path d="M242.61,21.96l-.02,11.91c0,.55-.74,1.16-1.26,1.22l-4.85-.03-.03-13L223.65.22h6.85s9,15.51,9,15.51L248.63.17l6.84.07-12.86,21.72Z"/>
      <polygon points="203.32 34.91 197.17 34.94 197.18 5.66 185.85 5.66 185.86 .02 214.63 .02 214.65 5.66 203.31 5.66 203.32 34.91"/>
    </g>
  </g>
</svg>