<?xml version="1.0" encoding="UTF-8"?>
<svg id="Layer_2" data-name="Layer 2" xmlns="http://www.w3.org/2000/svg" viewBox="0 0 298.79 38.59">
  <g id="Camada_1" data-name="Camada 1">
    <g id="Cf6PIZ.tif">
      <g>
        <path d="M298.79,19.64v1.03s-2.65,2.26-2.65,2.26l-.07,2.82c-.06,2.35-.39,4.51-1.3,6.63-1.82,4.23-6.26,6.58-10.75,5.33-1.42-.4-2.2-1.72-2.25-3.08-2.73,2.43-7.3,4.84-9.07,2.58-.64-.82-.47-1.92-.3-3.22-1.96,1.67-3.74,3.32-6.18,3.94-1.22.31-2.77.26-3.51-.82s-.46-2.78.26-3.88l3.52-5.42c1.3-2,3.5-5.51,2.16-6.06-2.79-1.14-9.4,6.47-11.73,9.64l-4.72,6.43-2.97-.03,6.44-8.63,3.73-5.74c.24-.37.26-1.28.04-1.66-3.02.28-6.92,5.02-9.13,7.76-2.56,3.18-6.61,8.02-10.28,8.54-.97.14-2.2-.34-2.59-.97-.54-.87-.37-1.9-.13-2.98-2.67,2.38-7.04,5.34-9.52,3.29-.84-.69-.86-2.22-.34-3.14l1.98-3.51c.55-.97.72-2.54-.39-3.28-.6-.4-2.08-.21-2.77.15l-7.24,10.21-2.99.04,1.49-2.32c-2.12,1.15-3.56,2.46-5.87,2.52-.76.02-1.84-.35-2.22-.85-1.24-1.64.2-4.54,1.69-6.57l7.17-9.74,2.85.09-6.82,9.14-2.69,4.55c-.28.48-.25,1.52-.09,2.06,2.73.87,8.16-4.14,9.86-6.53L241.58,2l2.89-.02-15.81,22.3,6.22-3.18c.98-.5,2.29-.54,3.36-.33.8.16,1.39.99,1.37,1.65-.02.72-.73,1.31-1.57,1.47-.27.05-1.11,0-1.18-.25l-.26-.92c-.07-.24-.25-.78-.47-.81-1.36-.21-6.04,2.73-8.12,4.3,1.4.18,2.72.32,3.57,1.25,1.11,1.21.9,2.83.13,4.16l-2.01,3.47c-.21.36-.15,1.57.24,1.72,2.94.62,8.07-4.3,10.03-6.9l6.73-8.95,2.85.08-6.73,9c-1.44,1.92-3.82,5.42-3.15,6.63.41.74,2.51-.05,4.01-1.34,2.48-2.14,4.47-4.57,6.53-7.11,2.56-3.17,7.43-8.78,10.88-7.25,1.43.63,1.13,2.27.57,3.59,2.59-2.51,7.01-5.31,9.02-3.11,1.78,1.94-.48,5.36-2.26,7.8-1.51,2.07-4.32,6.03-3.5,7.36.58.94,3.1-.13,4.87-1.56,2.77-2.25,5-4.9,7.12-7.76l4.68-6.33,2.85.09-6.21,8.3-3.16,5.06c-.34.54-.45,1.76-.2,2.29,1.72.99,5.99-2.09,7.02-3.63,1.33-2,2.59-5.02,5.23-4.14l7.69-6.59c.53-.46,1.45-3.19,3.99-2.67ZM293.37,29.26l1.22-5.36-7.01,5.84-1.98,2.18c-1.45,1.59-2.41,3.52-1.35,4.65,2.01,2.15,7.91-1.96,9.12-7.31Z"/>
        <path d="M214.18,0h.35s.02.8.02.8l-4.16,2.33c3.12,1.77,4.31,5.14,3.19,8.5s-3.85,5.64-7.21,7.06c4.76,2.84,3.93,9.5.07,13.57-6.01,6.23-17.35,7.95-24.91,3.49-4.97,2.89-12.94,4.23-16.56.07-2.12-2.45-2.09-6.18.6-8.11,2.77-1.99,6.64-1.66,9.27.49l3.73,3.71,2.52,2.43c11.32-8.6,15.62-22.54,26.9-31.11-1.31-.54-2.65-.94-4.04-1.05-8.87-.72-18.75,1.99-24.78,8.59-2.87,3.14-4.49,8-2.02,10.65,2.2,2.37,6.04.95,5.83,2.7-.24,1.99-6.58.28-7.73-4.47-.66-2.74.26-5.45,1.83-7.73,5.37-7.8,16.22-10.98,25.59-10.75,2.26.06,4.39.61,6.45,1.34l5.05-2.48ZM206.88,23.4c-.12-1.7-.78-3.42-2.21-4.13l-3.48.33c-.29.03-.89-.4-.91-.66s.46-.85.73-.85h3.67c4.83-1.47,7.58-6.35,6.5-11.19-.27-1.21-.91-2.1-1.86-2.94l-4.71,5.14-6.59,9.28c-2.4,3.37-4.55,6.72-7.34,9.78-2.47,2.71-5.05,5.03-8.22,7.07,6.31,3.37,15.03,2.58,20.28-2.22,2.7-2.47,4.42-5.77,4.14-9.61ZM180.25,34.87l-2.7-2.68-3.07-3.13c-2.19-1.77-5.06-2.33-7.62-1.06-2.25,1.11-3.08,3.67-1.99,5.96,2.42,5.06,10.55,4.21,15.38.92Z"/>
        <path d="M135.86,34.32c-3.63,2.83-10.58,5.36-13.08,2.57-1.05-1.17-.84-2.72-.51-4.23-2.74,2.79-7.99,7.02-10.81,4.83-1.18-.92-.86-2.49-.37-3.81-1.48,1.29-2.87,2.49-4.55,3.41-2.09,1.15-4.83,1.47-5.75-.04-.33-.55-.53-1.74-.2-2.34l2.06-3.73c.57-1.03.91-2.56-.18-3.44-.59-.47-2.22-.33-2.89.11l-7.22,10.15-2.93.02,1.05-1.78c-2.4,1.62-5.56,2.94-7.14,1.3-1.38-1.43-.09-4.16,1.3-6.2l3.62-5.34c.87-1.28,1.56-3.56,1-3.97-.94-.68-3.44.69-4.86,1.91-2.55,2.19-4.8,4.61-6.8,7.33l-4.92,6.73h-2.98s7.67-10.42,7.67-10.42c1.14-1.54,2.95-4.41,2.69-5.4-.06-.23-.85-.27-1.07-.14-5.93,3.43-9.44,10.32-14.87,14.63-1.89,1.5-4.62,2.25-5.63,1-.35-.44-.45-1.37-.49-2.14-2.22,2.37-5.87,3.73-7.72,1.9-2.22-2.2.37-6.41,2.54-9.31-1.02.25-2,.53-2.98.51-1.36-.03-2.5-1.13-2.56-2.46-.05-1.02.1-1.95.28-3.02-6.37,3.83-10.68,8.73-14.79,14.82l-2.99-.02,11.17-15.32c-3,.74-5.68,1.05-8.5.39-4.88,6.86-11.52,13.99-20.03,15.48-3.26.57-6.54.23-9.36-1.5-2.45-1.5-3.83-4.54-2.68-7.27,2.23-5.3,9.57-5.22,10.17-3.43.08.24-.16,1.02-.42,1.05-1.57.17-4.3-1.73-6.96.31-1.28.98-2.44,2.58-2.2,4.46.73,5.74,9.13,7.26,15.47,3.94,5.49-2.88,9.62-8.52,13.24-13.52-2.63-.64-5.04-.64-7.54.11-.12-.01-.79-.19-.7-.32l.46-.64c2.82-.82,5.58-.68,8.42-.02,3.25-4.98,6.67-9.59,10.88-13.76l-11.02-3.08c-5.13-1.44-11.59-2.39-15.85.74,4.62-.32,8.61,2.21,8.83,6.39.11,2.16-.68,4.04-2.38,5.44-2.96,2.43-7.43,2.22-9.83-.87-1.9-2.45-1.85-5.56-.64-8.55-5.81,2.83-3.74,8.09-4.79,8.93-.25.2-1.1-.2-1.17-.53-.16-.85-.08-1.95.07-2.84,1.17-3.38,3.57-6,6.97-7.2,1.95-2.32,4.64-3.52,7.63-4.08,8-1.16,16.16,1.81,24.13,3.93,3.92-3.28,10.59-5.83,15.27-3.96.93.37,1.7,1.32,1.82,2.09.43,2.96-3.4,4.53-6.83,4.94s-6.68-.12-10.08-.85c-3.88,4.21-7.04,8.79-10.24,13.75,3.22.64,6.64.16,9.68-1.49.73-.39,2.08-1.57,2.79-.74.89,1.04-.86,1.66-1.36,2.18-1.27,1.31-2.28,2.78-3.24,4.46,2.56-1.94,4.67-3.83,7.41-5.23.79-.4,2.01-.68,2.8-.21.6,1.74-2.5,3.35-1.14,6.31,2.11.67,5.1-1.99,7.19-3.74,2.28-1.91,5.87-3.8,7.81-2.4.64.46.9,1.38,1.07,2.2l1.84-2.39,2.81.1-5.38,7.13c-1.63,2.17-3.07,4.35-4.47,6.7-.33.55-.42,1.36-.42,2.09,2.75,0,5.92-3.65,7.9-6.06,2.87-3.51,7.74-9.59,11.63-10.21.8-.13,1.86.31,2.21.82.47.67.25,1.95-.05,2.88,2.57-2.21,6.64-5.13,8.86-2.98,2.1,2.04-.88,6.1-2.8,8.69-1.41,1.9-3.6,5.23-2.89,6.51.45.81,2.9.03,4.4-1.29,1.77-1.55,3.55-3.04,4.95-5.01L114.98,1.93l2.82.06-15.82,22.32c3.09-1.62,6.71-4.33,9.75-3.49.7.19,1.25,1,1.23,1.59-.03,1-1.35,1.73-2.47,1.41-.65-.18-.43-1.72-.89-1.87-1.27-.43-6.16,2.68-8.3,4.27,1.4.11,2.73.26,3.59,1.2,2.85,3.11-3.07,7.22-1.83,9.16.54.84,2.82-.03,4.49-1.22,3.02-2.16,5.39-4.85,7.57-7.82l4.86-6.62,2.85.1-7.92,10.78c-.96,1.31-2.16,3.92-1.66,4.8.43.77,2.56.05,4.18-1.06,3.02-2.07,5.38-4.67,7.54-7.6,1.85-2.5,4.05-4.61,6.74-6.15,2.15-1.23,4.96-1.7,6.06-.18s-.4,3.85-2.46,5.22c-2.77,1.84-5.79,2.8-9.12,3.31-.83,1.49-1.45,3.08-1.63,4.76-.46,4.29,8.15,1.23,11.69-2.13.63-1.46,1.5-2.57,2.65-3.61.75-.42,1.45-.54,2.33-.25l7.75-6.51c.59-1.46,1.61-2.4,2.97-3.05l.84.2c.2.05.19.88.03,1.03l-2.57,2.37c0,2.94-.01,5.79-.98,8.56-1.63,4.66-6.11,7.46-10.97,6.25-1.54-.38-2.37-1.74-2.45-3.43ZM58.71,5.75c.29-.52.58-1.2.53-1.56-.04-.32-.52-.93-.83-1.06-4.02-1.78-9.9.07-13.26,3.36,4.76,1.18,9.65,2.26,13.55-.73ZM20.96,15.7c2.24-2.66,1.51-6.53-1.57-8.29-1.75-.99-4.82-1.72-6.6-.43-1.96,1.43-2.48,4.63-2.02,6.78s2.48,3.59,4.21,3.98c2.33.52,4.44-.21,5.98-2.04ZM55.85,35.78c3.81-3.1,6.68-7.05,8.39-11.52.33-.87.41-2.27-.61-2.58-.79-.24-2.09.33-2.82.9-3.94,3.11-6.98,7.19-8.69,11.89-.27.73-.41,2.18.38,2.44,1.04.34,2.4-.35,3.35-1.12ZM135.53,21.87c-.7-.48-2.1.04-2.85.6-2.36,1.76-4.25,3.9-5.82,6.58,4.07-.57,9.83-3.56,8.68-7.18ZM139.86,37.09c1.4-.06,2.58-.64,3.59-1.42,3.44-3,4.55-7.11,5.25-11.74l-7.25,6.02-1.74,2.02c-.74.86-1.5,1.83-1.72,2.94-.23,1.18.53,2.24,1.86,2.19Z"/>
        <path d="M223.19,12.69c.73-.38,1.73-.13,2.1.59.34.67.2,1.67-.67,2.16-.57.32-1.63.13-2.06-.62-.38-.67-.21-1.7.64-2.14Z"/>
        <path d="M124.06,12.77c.77-.5,1.76-.23,2.19.48.37.61.25,1.64-.41,2.07s-1.59.28-2-.16c-.64-.69-.66-1.81.22-2.39Z"/>
        <path d="M251.55,12.66c.75-.34,1.71-.04,2.06.67s.16,1.67-.67,2.1c-.64.33-1.67.08-2.06-.59-.43-.74-.2-1.79.67-2.18Z"/>
        <path d="M285.45,12.73c.7-.42,1.69-.2,2.15.47.41.59.29,1.63-.4,2.13-.63.45-1.67.26-2.13-.32-.53-.67-.4-1.8.38-2.27Z"/>
      </g>
    </g>
  </g>
</svg>