<?xml version="1.0" encoding="UTF-8"?>
<svg id="Layer_2" data-name="Layer 2" xmlns="http://www.w3.org/2000/svg" viewBox="0 0 228.95 46.34">
  <g id="Camada_1" data-name="Camada 1">
    <g id="_3ae4CF" data-name="3ae4CF">
      <g>
        <polygon points="62.82 23.52 62.85 8.1 57.84 23.41 54.37 23.51 49.3 7.97 49.31 23.47 44.57 23.43 44.59 .57 50.9 .58 56.06 17.12 61.2 .57 67.76 .57 67.75 23.46 62.82 23.52"/>
        <path d="M181.42,23.54l-.41-4.84c-.07-.87-.25-2.28-.72-2.84s-1.91-1.06-2.63-1.05l-6.16.08v8.56s-5.3-.01-5.3-.01V.53s14.3.19,14.3.19c2.93.04,5.4,2.38,5.85,4.6.65,3.19-.56,5.8-3.69,7.42,5.4,1.53,2.63,6.39,4.51,10.74l-5.75.07ZM178.43,10.76c1.77-.02,2.92-1.71,2.81-3.28-.08-1.23-1.34-2.7-2.85-2.71l-6.87-.03-.07,6.07,6.97-.06Z"/>
        <polygon points="227.14 13.74 215.63 13.74 215.62 19.21 228.95 19.2 228.93 23.46 210.24 23.5 210.23 .56 228.47 .54 228.5 4.74 215.59 4.76 215.63 9.76 227.11 9.77 227.14 13.74"/>
        <polygon points="161.88 13.72 150.4 13.74 150.36 19.18 163.8 19.22 163.8 23.47 145.16 23.48 145.15 .55 163.39 .54 163.43 4.74 150.37 4.76 150.37 9.76 161.84 9.77 161.88 13.72"/>
        <polygon points="87.86 13.72 76.36 13.74 76.27 19.21 89.78 19.21 89.68 23.46 71.15 23.48 71.13 .55 89.42 .54 89.44 4.75 76.34 4.75 76.33 9.76 87.79 9.76 87.86 13.72"/>
        <path d="M106.06,23.2c-3.96,1.46-8.16,1.02-11.55-1.1-1.91-1.19-2.76-3.32-3.03-5.65l5.14-.08,1.11,2.13c3.25,2.02,7.79.84,7.62-1.28-.05-.57-.93-1.51-1.51-1.72l-7.17-2.62c-2.33-.85-4.17-2.56-4.48-4.68-.36-2.43.41-4.9,2.44-6.41C97.04.01,100.19-.13,103.16.15c4.02.38,6.89,3.4,6.98,7.14l-5.24-.03c-.6-2.41-2.43-3.14-4.91-2.79-.95.13-2.24.78-2.46,1.74-.16.73.93,1.95,1.73,2.25l8.08,3.11c1.07.41,2.65,1.99,3.01,3.06,1.19,3.56-.69,7.25-4.27,8.57Z"/>
        <path d="M203.32,23.02c-3.82,1.58-7.6,1.3-11.04-.39-2.37-1.16-3.79-3.39-3.89-6.18l5.12-.06,1.1,2.18c3.43,2.02,7.78.62,7.61-1.34-.33-3.76-15.46-2.48-13-12.1,1.21-4.73,7.24-5.91,12.38-4.65,3.3.81,5.12,3.72,5.45,6.78l-5.41-.02c-.44-1.87-1.47-2.7-3.34-2.82-1.07-.07-3.21.31-3.68,1.19-1.96,3.68,7.55,3.54,11.53,7.58,2.97,3.01.92,8.29-2.83,9.84Z"/>
        <path d="M127.53,15.76v7.69s-5.32.09-5.32.09V.61c4.63.02,9.1-.09,13.57.17,4.23.24,6.87,3.95,6.82,7.58-.05,4.15-3.15,7.27-7.58,7.32l-7.49.08ZM134.08,11.49c1.97-.02,3.18-1.87,3.1-3.54-.07-1.5-1.37-3.12-3.17-3.14l-6.51-.06.02,6.83,6.56-.08Z"/>
        <path d="M35.85,19.28h-8.77s-1.25,4.17-1.25,4.17l-5.53.07L28.5.62l5.86-.11,8.22,22.91-5.51.05-1.21-4.19ZM34.58,15.49l-3.16-9.59-3.12,9.62,6.28-.03Z"/>
        <path d="M2.79,22C.22,20.19-.23,17.22.09,14.24l4.79-.05c.1,1.59.16,3.06.97,4.07s2.77,1.41,4,1.33c1.11-.07,3.33-1.25,3.34-2.6l.13-16.42h5.31s-.04,16.01-.04,16.01c0,2.17-1.24,4.59-3.05,5.74-3.84,2.41-8.93,2.38-12.75-.32Z"/>
        <path d="M116.72,45.79c-.56.2-2.62.26-3.08-.34l-5.88-7.76-.09,8.18h-2.79s0-12.71,0-12.71l2.73-.12,6.31,8.5-.07-8.41h2.89s0,12.67,0,12.67Z"/>
        <path d="M127.51,41.24l-2.46-.24c-.41-.04-.37-1.5-.19-1.92l5.78-.02-.05,6.79c-.71.21-1.9-.17-2.46-.78-1.8,1.29-4.25,1.64-6.49.69s-3.45-3.1-3.61-5.73c-.22-3.53,1.58-6.42,4.9-7.12s6.69.86,7.57,4.38c-.8.09-2.48.15-3.09-.24-.74-.65-1.73-1.62-2.45-1.8-.84-.21-2.6.51-3.06,1.26-1.18,1.94-1.2,4.18.02,6.08.56.87,2.3,1.44,3.29,1.15s2.05-1.6,2.31-2.51Z"/>
        <path d="M74.1,38.87c.31,4.32-2.27,7.28-6.09,7.45-3.93.17-6.76-2.7-6.75-6.81,0-3.69,2.38-6.52,5.86-6.75s6.69,2.06,6.98,6.11ZM71.04,39.73c-.01-1.4-.46-2.89-1.25-3.74-.61-.65-2.45-.93-3.34-.48-2.05,1.05-2.3,3.13-2.02,5.13s1.77,3.32,3.49,3.16c1.88-.18,3.14-1.67,3.12-4.07Z"/>
        <polygon points="141.34 40.53 135.05 40.5 135.05 43.56 142.56 43.56 142.52 45.92 131.95 45.91 131.94 33.09 142.28 33.1 142.28 35.41 135.08 35.42 135.04 38.25 141.36 38.25 141.34 40.53"/>
        <polygon points="163.86 40.52 157.53 40.51 157.46 43.56 164.86 43.56 164.8 45.91 154.45 45.92 154.45 33.11 164.68 33.09 164.74 35.43 157.5 35.42 157.52 38.25 163.85 38.24 163.86 40.52"/>
        <path d="M176.12,40.3c1.21,1.2.57,3.42-.28,4.38-.9,1.02-2.45,1.62-4.01,1.65-2.88.05-5.6-.95-5.96-4.35l2.89.06c.72,1.03,1.56,1.7,2.33,1.73,1.4.06,2.21-.26,2.89-1.68l-6.17-2.6c-1.57-.66-1.82-2.95-1.22-4.37.65-1.56,2.4-2.28,4.27-2.38,2.85-.15,5.29.86,5.64,4.08-.49.1-2.16.27-2.72-.15l-1.94-1.43c-.52-.39-2.09.33-2.64.93.71,2.16,4.38,1.6,6.92,4.13Z"/>
        <path d="M85.18,44.3c-1.24,1.76-3.18,2.07-5.02,2.01-2.71-.1-5-1.43-5.18-4.32l2.88.14c.84,1,1.53,1.55,2.48,1.66s2.22-.41,2.54-1.53c-3.05-2.27-8.04-1.97-7.57-5.97.23-1.98,1.84-3.28,3.94-3.5,2.86-.29,5.82.38,6.3,3.95-3.4,1.08-3.2-1.47-5.13-1.59-1.01-.06-1.93.51-2.1,1.77l5.44,2.24c.65.27,1.64,1.26,1.92,1.87.33.7.09,2.43-.49,3.25Z"/>
        <path d="M100.08,43.59h-4.81c-.34.92-.54,1.78-.95,2.15s-1.97.17-2.88-.02l4.46-12.56h3.44s4.41,12.69,4.41,12.69l-2.86-.03c-.49,0-.6-1.31-.81-2.22ZM99.31,41.44l-1.72-5.18-1.78,5.24,3.49-.06Z"/>
        <polygon points="60.45 43.48 60.52 45.9 51.09 45.93 51.1 33.15 54.1 33.08 54.1 43.49 60.45 43.48"/>
        <path d="M152.9,43.52c.45.22.43,2.07-.02,2.41l-9.03-.03-.03-12.76,3.01-.03v10.32s6.08.09,6.08.09Z"/>
      </g>
    </g>
  </g>
</svg>