<?xml version="1.0" encoding="UTF-8"?>
<svg id="Layer_2" data-name="Layer 2" xmlns="http://www.w3.org/2000/svg" viewBox="0 0 296.73 33.29">
  <g id="Camada_1" data-name="Camada 1">
    <g>
      <path d="M5.28,33.29h-1s-.28-.06-.28-.06c-1.44-.19-2.74-.88-3.79-1.86l-.21-.13v-.06s.73-.17.73-.17c1.5,1.23,3.49,2.14,5.37,1.44.96-.36,1.68-1.1,1.97-2.09.18-.64.31-1.29.31-1.98V1.24s-3.47,0-3.47,0l.02-.64h7.38s-.01,22.01-.01,22.01c0,1.43-.16,2.8-.39,4.17-.13.81-.43,1.5-.78,2.23-.57,1.18-1.36,2.15-2.43,2.91s-2.17,1.23-3.41,1.37Z"/>
      <path d="M217.21,33.27h-1.43s-.9-.19-.9-.19l-.2-.08s.09-.11.11-.14l.32-.34c1.87.6,4.03-.29,5.28-1.67.46-.5.73-1.08,1.08-1.66l1.39-3.17,2.15-5.45-7.8-19.33h-2.99s-.13-.09-.13-.09v-.42s.04-.13.04-.13h11.01s.02.64.02.64h-3.58s-.17.04-.17.04c-.03,0,0,.09.02.15l5.74,13.98,6.08-14.15h-3.73s0-.64,0-.64h6.87s0,.64,0,.64h-2.42s-7.47,17.49-7.47,17.49l-1.59,3.82-1.81,4.63c-.43,1.11-.92,2.12-1.54,3.13-.97,1.58-2.55,2.68-4.37,2.95Z"/>
      <path d="M63.8,1.54c-2.61,1.41-4.11,4.38-4.12,7.28l-.02,10.52h3.47s0,.64,0,.64h-10.85s-.02-.64-.02-.64h3.48s0-18.09,0-18.09h-3.48s0-.64,0-.64h7.3s.01,4.9.01,4.9l.84-1.51c1.05-1.75,2.71-3.09,4.73-3.6,1.6-.4,3.27-.34,4.85.09.89.24,1.66.64,2.35,1.21,1.26,1.05,1.73,2.76,1.73,4.39v13.23s3.45,0,3.45,0v.64s-10.84,0-10.84,0l-.02-.64h3.48s0-15.02,0-15.02c0-.71-.24-1.37-.53-1.97-.41-.83-1.15-1.36-2.07-1.5-1.29-.2-2.58.07-3.73.69Z"/>
      <path d="M95.04,4.39c-.76,1.33-1.21,2.78-1.21,4.31l-.02,10.63h3.48s0,.64,0,.64h-10.86s0-.64,0-.64h3.48s0-18.09,0-18.09h-3.47s0-.64,0-.64h7.31s.01,4.9.01,4.9l1.09-1.92c1.1-1.57,2.67-2.76,4.57-3.21,1.5-.36,3.05-.31,4.54.05.99.24,1.86.67,2.63,1.33.58.49,1,1.13,1.25,1.86.22.63.39,1.26.39,1.96v13.76s3.48,0,3.48,0v.64s-10.85,0-10.85,0l-.02-.64h3.48s-.01-14.96-.01-14.96c0-.81-.27-1.56-.66-2.23-.42-.72-1.12-1.16-1.94-1.29-2.68-.41-5.29,1.19-6.64,3.54Z"/>
      <path d="M255.1,19.33l.02.64h-10.86s0-.64,0-.64h3.48s0-18.09,0-18.09h-3.47s0-.64,0-.64h7.21s.1.07.1.07v4.83s1.15-1.98,1.15-1.98c1.09-1.56,2.68-2.72,4.56-3.15,1.49-.35,3.02-.29,4.5.06,1,.24,1.88.69,2.66,1.35.64.56,1.08,1.3,1.32,2.12.17.58.3,1.15.3,1.78v13.64s2.82,0,2.82,0h.4c.1-.02.26.02.26.1v.42s0,.12-.03.12h-.14s-10.38,0-10.38,0h-.33s-.01-.55-.01-.55c0-.09.2-.1.31-.1h.12s2.96,0,2.96,0c.03,0,.07-.06.09-.11V4.38c-.01-.76-.25-1.46-.59-2.1-.42-.81-1.16-1.31-2.08-1.44-2.45-.34-4.87.97-6.24,2.99-.93,1.37-1.55,2.98-1.55,4.68l-.04,10.71.04.11h3.42Z"/>
      <path d="M168.91,19.97c-.04-.19-.04-.39-.04-.64l3.2-.02-7.95-9.67h-.5s0,9.68,0,9.68h2.47s0,.64,0,.64h-9.84s0-.64,0-.64h3.47s0-18.2,0-18.2h-3.47s0-.64,0-.64h7.39s0,8.48,0,8.48c.17.03.35.03.53-.01l8.91-7.7-3.19-.02v-.63s7,0,7,0v.64s-2.7,0-2.7,0l-7.03,6.04,9.96,12.03h1.94s.01.52.01.52c0,.03-.02.12-.05.12h-.15s-9.94,0-9.94,0Z"/>
      <path d="M191.4,20.31c-1.51-.42-2.84-1.32-3.15-2.92-.2-1.06-.21-2.16.22-3.18.67-1.6,2.29-2.36,3.89-2.89l5.47-1.8c.68-.22,1.26-.64,1.67-1.22.72-1.03.65-3.25.51-4.6-.16-1.57-.84-2.84-2.49-3.02-1.11-.12-2.23-.06-3.34.19-1.7.4-3.16,1.53-3.97,3.08l-.73,1.77-.69-.13.69-1.76c.72-1.43,1.91-2.48,3.35-3.16.87-.41,1.77-.59,2.74-.65h2.11c2.4.16,4.83,1.25,5.71,3.56.26.69.46,1.4.46,2.15v11.91c.02,1,.3,1.86,1.31,1.96.85.08,1.62-.19,2.34-.69l.38.5-1.13.68c-.72.36-1.47.48-2.27.47-2.65-.02-3.82-.93-4.46-3.48-.03-.03-.12.03-.15.07l-.65,1.24c-.52.77-1.28,1.29-2.13,1.65-.98.41-1.99.52-3.06.52-.9,0-1.77-.03-2.63-.27ZM194.58,19.58c2.02.3,3.78-.41,4.64-2.27.25-.53.46-1.07.52-1.65l.19-1.87v-4.83s-.06-.03-.06-.03c-.22.53-.89.89-1.43,1.11l-3.41,1.37c-1.66.67-2.82,1.89-2.97,3.72-.16,1.98.37,4.15,2.51,4.46Z"/>
      <path d="M34.47,19.95c1.84,0,3.41-.34,4.84-1.55.63-.54,1.17-1.19,1.48-1.96l.64-1.58.68.15c-.21.62-.39,1.18-.68,1.74-.73,1.44-1.92,2.5-3.38,3.17-1.08.5-2.22.65-3.41.66-1.64.03-3.21-.23-4.72-.85-2.62-1.09-4.61-3.23-5.44-5.96-.49-1.6-.64-3.3-.36-4.97.55-3.31,2.66-6.16,5.61-7.71,1.12-.59,2.28-.96,3.55-1.06,3.18-.25,6.21,1.03,7.92,3.77.98,1.53,1.28,3.18,1.28,4.98h-13.84c-.16,1.91-.12,3.78.14,5.65.14.99.42,1.88.85,2.76,1.11,1.95,2.6,2.77,4.85,2.76ZM37.9,7.37v-2.34c-.01-.95-.22-1.85-.65-2.69-.4-.77-1.06-1.32-1.91-1.54-1.06-.27-2.19-.26-3.23.11s-1.73,1.09-2.25,1.98c-.86,1.58-1.12,3.43-1.25,5.24h9.23s.06-.76.06-.76Z"/>
      <path d="M295.07,16.49l.66-1.63.69.14-.74,1.86c-.74,1.39-1.93,2.42-3.36,3.08-1.07.49-2.19.63-3.38.65-1.79.03-3.53-.28-5.15-1.04-2.34-1.1-4.11-3.06-4.93-5.52-.56-1.69-.74-3.49-.44-5.25.57-3.31,2.69-6.15,5.64-7.69,1.11-.58,2.26-.95,3.51-1.04h1.64c1.25.13,2.43.47,3.51,1.09,2.64,1.51,4.16,4.41,4.01,7.44v.19s-.15.03-.23.02h-13.43s-.13.07-.13.07c-.14,1.65-.11,3.24.06,4.89.21,2.3,1.04,4.6,3.15,5.69.84.43,1.75.53,2.69.53,1.13,0,2.22-.13,3.24-.59,1.32-.59,2.36-1.54,3-2.87ZM292.2,7.48v-2.5c-.01-.89-.22-1.73-.59-2.52-.41-.85-1.1-1.43-2.02-1.66-.99-.25-2.03-.23-3.02.07-.92.28-1.63.89-2.18,1.66-1.06,1.63-1.34,3.65-1.48,5.61h9.23s.06-.66.06-.66Z"/>
      <polygon points="120.62 19.97 120.6 19.33 124.08 19.33 124.08 1.24 120.61 1.24 120.61 .6 128 .61 128 19.33 131.47 19.33 131.47 19.97 120.62 19.97"/>
    </g>
  </g>
</svg>