<?xml version="1.0" encoding="UTF-8"?>
<svg id="Layer_2" data-name="Layer 2" xmlns="http://www.w3.org/2000/svg" viewBox="0 0 131.69 55.89">
  <g id="Camada_1" data-name="Camada 1">
    <g id="Hhq13Y">
      <path d="M0,55.89V0h131.69v55.89H0ZM39.41,46.61l-12.29-23.2,10.7-14.16-9.17.02-11.43,14.98-.07-15.04h-7.96s0,37.47,0,37.47h7.98s.01-11.37.01-11.37l4.48-5.49,8.9,16.82,8.84-.03ZM53.98,46.65V9.21s-7.95,0-7.95,0v37.48s7.95-.04,7.95-.04ZM77.59,46.68V15.99s9.64-.02,9.64-.02v-6.76s-27.1,0-27.1,0v6.76s9.5.01,9.5.01v30.69s7.96,0,7.96,0ZM122.5,46.64V9.21s-7.98,0-7.98,0v14.41s-12.93-.01-12.93-.01v-14.4s-7.98.01-7.98.01v37.46s7.98.01,7.98.01v-15.73s12.81,0,12.81,0v15.74s8.11-.06,8.11-.06Z"/>
    </g>
  </g>
</svg>