<?xml version="1.0" encoding="UTF-8"?>
<svg id="Layer_2" data-name="Layer 2" xmlns="http://www.w3.org/2000/svg" viewBox="0 0 161.72 32.46">
  <g id="Camada_1" data-name="Camada 1">
    <g>
      <path d="M147.58,16.37l-3.55-.21.04,12.29c0,2.38,1.59,3.35,3.72,3.48,5.85.34,10.99-2.22,13.93-7.25l-1.52,7.77h-23.79c2.09-1.24,3.06-2.53,3.06-4.7l-.02-23.07c0-1.91-1.24-2.93-2.95-4.02h22.18s1.55,7.35,1.55,7.35c-2.07-2.85-4.42-4.97-7.74-6.28-2.86-.47-5.72-.58-8.46-.43l.05,14.23c4.11.64,7.15-.91,8.44-4.26l-.02,9.13c-1.18-2.15-2.54-3.89-4.91-4.03Z"/>
      <path d="M59.81,19.49l-10.27-.02-2.98,7.35c-.91,2.26.04,4.16,2.29,5.59l-8.6.04c2.4-1.59,4.43-3.14,5.49-5.72L56.67,0l11.02,27.03c.89,2.19,2.37,3.79,4.22,5.42h-10.54c1.45-1.22,2.19-2.93,1.53-4.69l-3.09-8.27ZM59.56,18.85l-4.81-12.19-5,12.19h9.81Z"/>
      <path d="M25.32,24.68l-1.6,7.79H0c2.1-1.25,3.07-2.54,3.07-4.71V5.02C3.05,3,1.95,1.76.07.66l10.48.03c-1.95,1.24-2.91,2.28-2.9,4.29l.02,23.48c0,2.4,1.62,3.34,3.73,3.46,5.86.35,10.96-2.24,13.93-7.25Z"/>
      <path d="M99.82,32.43h-10.55c2-1.28,3.01-2.24,3.01-4.29V4.98c0-2.03-.86-3.14-2.86-4.31h10.41c-1.96,1.15-2.86,2.29-2.86,4.31v23.9c.25,1.64,1.14,2.35,2.85,3.55Z"/>
      <path d="M119.89,32.41c-3.27.16-7.21.14-9.52-2.53l-9.75-11.25c-.64-.74-1.72-.84-2.96-.73l9.9-10.71c.84-.91,1.4-2.52,1.07-3.73-.25-.93-1.42-1.77-2.83-2.76h12.79c-4.37,1.49-7.58,3.82-10.52,7l-5.98,6.45,11.75,13.37c1.78,2.03,3.79,3.46,6.05,4.9Z"/>
    </g>
  </g>
</svg>