<?xml version="1.0" encoding="UTF-8"?>
<svg id="Layer_2" data-name="Layer 2" xmlns="http://www.w3.org/2000/svg" viewBox="0 0 230.18 35.68">
  <g id="Camada_1" data-name="Camada 1">
    <g>
      <path d="M140.14,9.78c-2.39.18-3.91,1.91-4.23,4.26v18.38s-9.95,0-9.95,0v-16.24s.08-1,.08-1l.05-.79c.22-3.47,1.38-6.94,3.67-9.58l1.43-1.43c1.64-1.43,3.55-2.4,5.67-2.84l.75-.15.98-.14.92-.04c.22-.01.39-.02.51-.22h.99s.22.2.22.2c4.82.08,9.42,2.87,11.89,7.01.83,1.39,1.3,2.87,1.61,4.44l.14.88.14,1.24.09,1.85v16.8s-9.95,0-9.95,0V14.29c-.06-1.36-.6-2.58-1.61-3.47-.94-.83-2.15-1.13-3.4-1.04Z"/>
      <path d="M19.16,14c-.36-2.65-2.24-4.38-4.92-4.23-1.43.08-2.64.73-3.45,1.93-.52.77-.87,1.65-.85,2.62v18.11s-9.94,0-9.94,0V16c0-.57.03-1.05.09-1.6l.16-1.42c.12-1.13.41-2.2.77-3.28,1.24-3.73,3.96-6.93,7.62-8.43,1.58-.65,3.21-1.01,4.9-1.05.21,0,.32-.06.55-.19l.92-.02c.2.19.31.19.57.2,3.27.16,6.41,1.51,8.85,3.7l1.08,1.08c1.58,1.73,2.67,3.84,3.13,6.14l.15.75.12.91.17,1.5v18.13s-9.92,0-9.92,0V14Z"/>
      <path d="M38.31,32.42V14.48c.07-1.5-.69-3.03-1.88-3.9-1.07-.79-2.41-.97-3.71-.73-.12-.18-.1-.41-.14-.64l-.19-1.04c-.41-2.33-1.49-4.46-3.07-6.22l-.89-.94c1.37-.47,2.74-.79,4.14-.8h.18c.05,0,.11-.12.14-.21h1.5c.09.12.21.2.35.21.77.02,1.45.11,2.22.28,5.78,1.28,10.43,6,11.07,11.99l.14,1.34.09,1.77v16.83s-9.96,0-9.96,0Z"/>
      <path d="M164.34,32.42V14.17c-.11-.75-.25-1.4-.59-2.03-.71-1.34-1.99-2.25-3.51-2.36-.34-.03-.66-.05-.98,0l-.6.08-.14-.96-.15-.81c-.51-2.73-1.88-5.16-3.97-7.06,1.4-.5,2.78-.79,4.2-.81.14,0,.24-.06.35-.21h1.42c.13.13.31.2.5.22l1.41.13c5.64.96,10.59,5.38,11.58,11.04l.15.88.14,1.09.15,2.25v16.8s-9.95,0-9.95,0Z"/>
      <path d="M103.32,25.79c-1.52,4.86-5.18,8.52-10.22,9.55l-.66.11c-.13.12-.21.18-.45.22v-10.12c1.34-.81,2.04-2.12,2.28-3.65V3.48s9.95,0,9.95,0v16.09s-.1,2.05-.1,2.05c-.07,1.44-.36,2.8-.79,4.17Z"/>
      <path d="M226.09,31.41l-.77.77c-1.91,1.76-4.3,2.88-6.88,3.27l-.17.2s-.26-.01-.26-.05v-10.03s.91-.75.91-.75c.83-.91,1.32-2.04,1.31-3.27V3.48s9.95,0,9.95,0v17.09s-.03.6-.03.6l-.18,1.62c-.32,2.92-1.78,6.54-3.88,8.63Z"/>
      <path d="M213.18,35.6c-.19-.13-.25-.17-.44-.2-5.69-1.01-10.54-5.82-11.32-11.55l-.15-1.13-.16-1.64V3.48s9.89,0,9.89,0v17.74c.03,1.9.72,3.23,2.27,4.33v9.7s-.08.34-.08.34Z"/>
      <path d="M87.12,35.68c-.07-.32-.19-.23-.41-.27-4.51-.88-8.38-3.87-10.26-8.06-.61-1.37-.97-2.78-1.13-4.25l-.18-1.55V3.48s9.83,0,9.83,0v17.77c.09,1.76.78,3.35,2.3,4.28v9.98s-.14.16-.14.16Z"/>
      <rect x="182.73" y="3.48" width="10.1" height="28.94"/>
      <rect x="56.73" y="3.48" width="10.1" height="28.94"/>
    </g>
  </g>
</svg>