<?xml version="1.0" encoding="UTF-8"?>
<svg id="Layer_2" data-name="Layer 2" xmlns="http://www.w3.org/2000/svg" viewBox="0 0 195.08 51.71">
  <g id="Camada_1" data-name="Camada 1">
    <g>
      <path d="M22.41,21.42c-1.84,9.83-3.38,19.61-5.16,29.64h-4.87s-5.12-29.75-5.12-29.75l-.09,29.77-7.16-.02V.65s7.91,0,7.91,0l6.93,27.64L21.77.64h7.89s0,50.42,0,50.42h-7.15s-.1-29.65-.1-29.65Z"/>
      <polygon points="169.14 51.05 163.12 51.06 154.01 21.22 153.93 51.04 146.76 51.06 146.75 .64 154.13 .63 161.92 26.18 161.98 .63 169.14 .64 169.14 51.05"/>
      <polygon points="130.56 51.05 123.41 51.06 123.41 28.71 116.38 28.71 116.38 51.05 109.25 51.06 109.25 .64 116.38 .63 116.38 22.3 123.41 22.31 123.41 .64 130.55 .63 130.56 51.05"/>
      <path d="M194.39,43.43c-1.23,4.49-4.37,7.85-9.15,8.24-4.46.36-8.32-1.57-10.25-5.64-.96-2.02-1.66-4.22-1.66-6.54l.02-27.41c0-2.7.98-5.29,2.33-7.5,1.59-2.6,4.19-4.16,7.17-4.49,4.59-.51,8.44,1.4,10.51,5.54,1.13,2.26,1.72,4.72,1.72,7.3v25.78c0,1.66-.26,3.15-.69,4.7ZM187.91,39.75V11.91c0-1.39-.55-2.73-1.3-3.73-1.07-1.42-3-1.64-4.29-.52-.6.52-1.05,1.14-1.3,1.89-.34,1.02-.57,2.07-.57,3.21v26.14c0,2.52,1.02,5.65,3.56,5.82s3.89-2.81,3.89-4.97Z"/>
      <path d="M53.76,46.04c-1.98,4.08-5.75,5.98-10.25,5.62-3.47-.28-6.39-2.22-7.97-5.33-1.07-2.11-1.8-4.44-1.8-6.9V12.47c0-2.72.82-5.32,2.16-7.6s3.51-3.97,6.11-4.55c4.78-1.08,9.34.69,11.62,5.1,1.07,2.08,1.82,4.41,1.82,6.85v27.05c0,2.39-.68,4.67-1.68,6.73ZM44.5,44.73c2.82.09,3.85-3.31,3.85-6.02V13.3s-.19-2.34-.19-2.34c-.09-1.06-.56-2.07-1.21-2.86-1.1-1.33-2.96-1.54-4.24-.43-1.43,1.23-1.86,3.36-1.86,5.29v25.86c0,2.57,1,5.84,3.65,5.92Z"/>
      <path d="M74.97,50.71c-4.7,1.97-10.97,1.09-13.95-3.3-1.08-1.71-1.64-3.58-1.66-5.62v-7.82s6.92,0,6.92,0v7.58c.02,1.57.93,2.93,2.32,3.56,1.48.62,3.1.18,3.92-1.21.5-.84.74-1.81.8-2.83.14-2.48.14-4.92-.08-7.4s-2.28-4.69-4.23-6.12l-3.38-2.48c-3.36-2.47-5.84-4.61-6.15-9-.17-2.38-.18-4.72-.07-7.11.03-.76.23-1.51.44-2.23.68-2.43,2.26-4.42,4.55-5.56,4.51-2.25,10.9-1.33,13.52,3.3.8,1.5,1.43,3.11,1.44,4.85l.02,6.07-6.79.03v-5.48c-.18-1.07-.42-2.1-1.1-2.91-.58-.68-1.36-1.06-2.21-1.06-1.72,0-2.99,1.81-3.08,3.43-.09,1.81-.19,3.59.03,5.38.18,1.44,1.25,2.65,2.35,3.44l2.14,1.53c1.93,1.38,3.85,2.64,5.63,4.22,2.47,2.18,4.07,5.1,4.08,8.46l.03,9.24c.01,3.89-1.86,7.51-5.5,9.04Z"/>
      <path d="M97.88,42.52c.29-1.01.55-2.04.55-3.07l.02-5.52h6.88s-.03,5.93-.03,5.93c0,1.85-.42,3.59-.97,5.34-1.13,3.1-3.33,5.51-6.6,6.18s-6.71.35-9.3-1.81c-3.1-2.58-4.45-6.84-4.45-10.85V12.82c.01-2.95.83-5.79,2.35-8.23,1.64-2.63,4.28-4.24,7.35-4.52,4.74-.44,8.66,1.4,10.24,5.98,1.25,3.63,1.08,7.37,1.02,11.18h-6.5s0-4.08,0-4.08c0-2.3-.4-5.39-2.6-6.06-1.58-.48-3.14.27-3.86,1.73-.62,1.25-.83,2.56-.83,4l.03,27.05c0,1.17.48,2.3.98,3.24.6,1.15,1.79,1.71,3.02,1.63s2.18-.93,2.68-2.22Z"/>
      <polygon points="142.14 51.04 134.98 51.05 134.98 .65 142.14 .63 142.14 51.04"/>
    </g>
  </g>
</svg>