<?xml version="1.0" encoding="UTF-8"?>
<svg id="Layer_2" data-name="Layer 2" xmlns="http://www.w3.org/2000/svg" viewBox="0 0 172.42 40.43">
  <g id="Camada_1" data-name="Camada 1">
    <g>
      <path d="M109.43.28c29.02-3.72,32.33,36.96,6.5,39.83-29.66,3.3-31.43-36.63-6.5-39.83ZM109.4,2.2c-18.5,3.76-16.58,39.65,6.58,35.99,18.82-2.98,15.96-40.57-6.58-35.99Z"/>
      <path d="M17.26.28c32.17-4.43,31.9,45.31-1,39.71C-6.16,36.17-4.99,3.34,17.26.28ZM18.23,2.21C.11,5.11,1.32,34.93,16.25,38.03c26.48,5.5,26.56-39.76,1.98-35.83Z"/>
      <path d="M143.01,1v29.91c0,.23,1.9,3.67,2.27,4.11,3.92,4.57,14.67,4.82,18.73.23.44-.5,2.53-4.09,2.53-4.34V1h5.88c-3.57,15.41,6.53,39.77-18.15,39.29-23.44-.46-13.75-24.11-17.15-39.29h5.89Z"/>
      <path d="M87.96,2.12l.13,4.76c-4.19-4.6-15.13-6.69-15.67,1.54-.53,8.1,22.05,12.71,15.45,26.18-3.37,6.88-12.16,6.78-18.41,4.16l-.96-6.38c1.6.18,1.33,2.22,2.93,3.43,3.3,2.49,8.66,3.25,11.8.04,7.76-7.89-9.31-14.71-12.62-19.82-7.72-11.9,7.13-20.09,17.35-13.91Z"/>
      <path d="M63.45,2.12l.13,4.76c-3.98-4.95-15.15-6.46-15.67,1.54-.56,8.68,22.08,12.14,15.45,26.18-3.06,6.49-12.56,6.85-18.41,4.16l-.96-6.38c1.6.18,1.33,2.22,2.93,3.43,3.3,2.49,8.66,3.25,11.8.04,7.68-7.81-9.21-14.56-12.62-19.82-7.72-11.89,7.13-20.09,17.35-13.91Z"/>
    </g>
  </g>
</svg>