<?xml version="1.0" encoding="UTF-8"?>
<svg id="Layer_2" data-name="Layer 2" xmlns="http://www.w3.org/2000/svg" viewBox="0 0 226.54 64.52">
  <g id="Camada_1" data-name="Camada 1">
    <g>
      <path d="M123.19,63.42l-.56-31.83c-2.34,8.08-3.45,15.55-5.22,23.16-.78-.14-1.53-.49-1.67-1.08-1.6-6.66-2.77-14.94-5.28-22.23l-.37,31.89-5.7-.05V1.19s6.11,0,6.11,0l6.3,29.86,5.95-29.83,6.77-.09v62.13s-6.32.16-6.32.16Z"/>
      <path d="M220.67,63.35l-7.66-34.27c-.28-1.26-.85-2.56-1.41-3.7l-.05,37.89-5.86.11V1.13s6.71-.14,6.71-.14l8.02,32.81.3-32.74,5.83-.03v62.1s-5.86.22-5.86.22Z"/>
      <path d="M192.22,64.5c-4.63-.24-8.66-3.31-8.66-8.24V8.72c-.01-5.15,4.27-8.55,8.98-8.72s9.38,3.12,9.38,8.45v47.6c0,5.41-4.6,8.71-9.7,8.45ZM194.89,55.85l-.02-47.41c0-.87-1.58-2-2.32-1.94s-1.91,1.31-1.9,2.35v47.31c.01,1.24,1.47,2.19,2.45,2.1.7-.06,1.8-1.11,1.8-2.39Z"/>
      <path d="M69.08,64.5c-5.39.3-9.87-3.21-9.87-8.72l.04-47.03c0-5.18,4.3-8.55,8.97-8.74s9.39,3.12,9.39,8.44l.02,47.61c0,4.9-3.9,8.19-8.54,8.44ZM70.57,55.86V8.89c0-1.36-1.16-2.46-2.23-2.38s-1.96,1.11-1.96,2.33v47.3c.01,1.36,1.27,2.25,2.41,2.13.75-.08,1.79-1.07,1.79-2.42Z"/>
      <path d="M19.31,63.33l-7.15.06c-.64-3.05-.77-6.04-.77-9.23v-17.5c-1.73-.62-3.16-.71-4.96-.55v27.24s-6.42.02-6.42.02V1.28c3.66-.15,7.18-.2,11-.08,4.08.12,7.26,3.92,7.25,7.95l-.03,16.87c0,2.65-1.34,4.84-3.55,6.57,2.13,1.26,3.58,3.29,3.6,5.74l.09,19.87c0,1.53.46,3.15.94,5.13ZM11.22,28.63l-.03-20.98-4.75-.38-.03,21.68,4.81-.33Z"/>
      <path d="M100.87,63.34l-6.76.05c-.34-.96-.89-2.62-.9-3.67l-.1-22.87c-1.37-.92-3.14-.97-4.87-.71v27.19s-6.56.03-6.56.03l-.02-62.19,10.18-.05c4.04-.02,7.96,2.85,7.99,7.29l.11,17.56c.02,2.64-1.33,4.81-3.44,6.61,1.89,1.34,3.42,3.16,3.43,5.44l.07,18.64c0,2.08.4,3.83.85,6.68ZM92.66,27.76c.21-6.91.2-12.76,0-19.36-.32-1.05-3.17-1.29-4.4-.86v21.07c.82.62,4.15.44,4.39-.85Z"/>
      <path d="M144.55,47.69l-4.84-.05-1.01,15.74-6.31-.13,5.42-62.13,9.14-.13,5.44,62.3-6.58.08-1.26-15.69ZM144.07,41.48l-1.62-27.69-.77.32-1.52,27.51,3.9-.14Z"/>
      <polygon points="36.86 34.12 29.63 34.16 29.63 56.64 38.2 56.69 38.22 63.39 22.56 63.35 22.56 1.14 37.8 1.13 37.84 7.84 29.63 7.86 29.63 27.45 36.83 27.48 36.86 34.12"/>
      <polygon points="55.58 27.44 55.59 34.12 48.38 34.17 48.34 63.36 41.26 63.31 41.25 1.15 56.56 1.12 56.61 7.84 48.37 7.87 48.36 27.43 55.58 27.44"/>
      <polygon points="164.1 63.18 157.41 63.3 157.41 7.89 150.94 7.8 150.92 1.13 170.36 1.14 170.46 7.84 164.09 7.9 164.1 63.18"/>
      <polygon points="180.05 63.04 173.16 63.38 173.15 1.21 180.04 1.13 180.05 63.04"/>
    </g>
  </g>
</svg>