<?xml version="1.0" encoding="UTF-8"?>
<svg id="Layer_2" data-name="Layer 2" xmlns="http://www.w3.org/2000/svg" viewBox="0 0 251.91 37.08">
  <g id="Camada_1" data-name="Camada 1">
    <g id="ZdEDoj.tif">
      <g>
        <path d="M10.1,18.22c2.1.02,4.13.07,6.2-.04,3.08-.16,5.95-1.48,6.56-4.67.21-1.08.19-2.14-.05-3.21-.58-2.53-2.7-3.58-5.15-3.91-.81-.07-1.56-.13-2.38-.13H6.39s.07,30.27.07,30.27H0S0,.44,0,.44h20.81c1.8.14,3.43.81,4.84,1.91,1.99,1.58,3.35,3.78,3.89,6.27.6,2.73.63,5.62-.43,8.22-.82,1.99-2.3,3.58-4.23,4.53-1.37.61-2.76.93-4.29,1.06l10.06,14.09h-7.81s-12.74-18.31-12.74-18.31Z"/>
        <path d="M132.32,37c-1.44.1-2.79.11-4.19,0-4.31-.31-8.28-2.3-11.24-5.43s-4.52-6.84-4.96-10.92c-.59-5.45,1.19-10.89,4.92-14.9C120.03,2.35,124.37.25,129.04,0h2.51c8.16.55,14.94,6.53,16.57,14.52.6,2.92.55,5.96-.22,8.88-1.17,4.46-3.93,8.35-7.8,10.87-2.33,1.51-4.97,2.52-7.78,2.72ZM136.64,29.31c5.23-3.63,6.83-10.77,4.14-16.46-1.11-2.36-2.88-4.33-5.14-5.62-3.39-1.93-7.5-1.96-10.92-.06-2.08,1.16-3.76,2.91-4.86,5.03-3.22,6.17-1.21,14.27,4.91,17.69,3.75,2.1,8.33,1.89,11.88-.58Z"/>
        <path d="M230.9,30.73l20.86-.08v5.91s-27.11,0-27.11,0c-.08-.03-.12-.1-.12-.18V.47s27.02,0,27.02,0h.28s.04.07.07.11v5.65s0,.16,0,.16c0,.03-.07.02-.15.02l-20.78-.08-.04.17.05,9.01s.08.14.12.14l20.8.02v5.63s-.08.14-.08.14l-20.88-.1-.04,9.39Z"/>
        <polygon points="65.85 21.4 44.88 21.3 44.85 30.69 65.71 30.61 65.71 36.52 38.48 36.52 38.47 .44 65.86 .43 65.85 6.37 44.87 6.29 44.92 15.62 65.85 15.64 65.85 21.4"/>
        <polygon points="216.93 .47 217.13 .53 213.27 10.16 203.16 36.56 196.03 36.57 181.82 .48 188.85 .47 199.58 27.76 210.27 .47 216.93 .47"/>
        <polygon points="107.77 .43 104.18 9.38 93.79 36.52 86.65 36.52 72.44 .44 79.48 .43 90.21 27.72 100.89 .43 107.77 .43"/>
        <polygon points="183.03 36.51 157.35 36.49 157.34 28.16 157.34 .42 164.17 .42 164.17 30.48 183.07 30.54 183.03 36.51"/>
      </g>
    </g>
  </g>
</svg>