<?xml version="1.0" encoding="UTF-8"?>
<svg id="Layer_2" data-name="Layer 2" xmlns="http://www.w3.org/2000/svg" viewBox="0 0 255.57 33.4">
  <g id="Camada_1" data-name="Camada 1">
    <g>
      <path d="M144.79,32.87h-5.2s-5.93-12.3-5.93-12.3h-4.28s0,12.31,0,12.31h-4.57s0-31.9,0-31.9l10.8.07c2.54.02,4.94,1.08,6.88,2.51,1.88,1.78,2.59,4.01,2.78,6.52.36,4.67-2.43,8.7-7.11,9.99l6.63,12.8ZM139.63,14.5c1.49-2.47,1.45-5.2.1-7.6-1.11-1.19-2.73-2.02-4.44-2.04l-6-.09v11.99s5.24-.05,5.24-.05c1.91-.02,3.7-.85,5.1-2.2Z"/>
      <path d="M19.9,32.77l-5.09.15-6-12.36h-4.28s0,12.32,0,12.32l-4.52-.03V.97s10.76.07,10.76.07c2.73.02,5.42,1.12,7.33,2.94,1.59,1.51,2.09,3.6,2.33,5.68.56,4.86-2.23,9.06-7.09,10.39l6.57,12.72ZM15.96,10.52c-.03-3.25-2.1-5.58-5.32-5.64l-6.11-.11v11.96c2.02,0,4,.05,5.9-.11,3.45-.29,5.57-2.62,5.53-6.1Z"/>
      <path d="M196.82,14.93c3.34,3.77,3.67,9.72.88,13.84-3.75,5.54-11.87,6.1-16.6,1.65l-.16,2.46h-4.23s0-31.9,0-31.9h4.32s0,13.54,0,13.54c4.16-4.38,11.87-4.01,15.79.41ZM188.3,29.56c4.3-.08,7.07-3.32,7-7.37s-3.03-7.06-7.15-7.07c-4.39,0-7.42,3.37-7.15,7.68.25,3.91,3.1,6.84,7.3,6.76Z"/>
      <path d="M223.9,29.57c-3.55,4.27-9.74,4.84-14.24,2.23l-1.86-1.45-.04,2.56-4.25-.05V.99s4.27-.01,4.27-.01l.02,13.42c4.43-4.27,12.13-3.79,15.86.54,3.43,3.98,3.76,10.4.24,14.64ZM214.99,29.56c4.32-.04,7.14-3.31,7.07-7.38s-3.26-7.26-7.52-7.06-6.89,3.32-6.79,7.35,2.92,7.13,7.24,7.09Z"/>
      <path d="M166.88,32.91l-.14-2.83c-2.44,2.82-5.89,3.58-9.43,3.08-5.3-.75-8.92-4.75-9.06-10.09-.09-3.26.69-6.52,3.22-8.77,4.22-3.76,11.29-4.04,15.26.19l.06-2.65h4.27s0,21.01,0,21.01l-4.18.06ZM165.14,27.08c2.24-2.64,2.28-6.81.04-9.47-2.01-2.39-5.36-2.95-8.2-1.96-3.09,1.08-4.62,3.97-4.45,7.13.2,3.95,3.15,6.81,7.16,6.74,2.06-.03,3.93-.66,5.45-2.44Z"/>
      <path d="M89.31,26.82l3.08,2.14c-3.08,3.86-8.8,5.12-13.5,4.01s-7.63-4.65-8-9.33c-.26-3.25.44-6.47,2.77-8.85,4.7-4.82,14.16-4.65,17.92,1.34,1.47,2.34,1.83,5.02,1.56,7.89h-17.97c.29,3.33,3.15,5.45,6.49,5.51,2.89.05,5.66-.56,7.64-2.71ZM88.78,20.39l-1.1-2.95c-1.98-1.85-4.34-2.52-6.99-2.13s-4.96,2.29-5.47,5.1l13.55-.02Z"/>
      <path d="M43.44,29.44c-4.25,5.08-11.8,5.16-16.51.9-2.33-2.11-3.23-5.1-3.27-8.16-.07-5.04,3.19-9.23,8.13-10.39,4.26-1,8.89.04,11.7,3.57,3.14,3.96,3.36,10-.05,14.08ZM40.23,26.88c1.93-2.67,1.9-6.45.1-9.03-2.44-3.49-8.11-3.65-10.84-.37-2.31,2.77-2.17,7.39.27,10.01,2.77,2.98,8.05,2.75,10.47-.61Z"/>
      <path d="M254.11,29.22l1.46,3.09c-2.6,1.37-5.63,1.39-8.22,0-1.97-1.06-3.01-3.25-3.01-5.45l-.02-11.3h-4.83s0-3.71,0-3.71h4.82s.02-7.13.02-7.13h4.18s.02,7.13.02,7.13l5.67-.02v3.7s-5.7,0-5.7,0l.04,10.52c0,1.14.84,2.45,1.38,3.03,1.35.73,2.43.78,4.19.14Z"/>
      <rect x="61.25" y=".98" width="4.27" height="31.87"/>
      <polygon points="55.28 32.78 51.01 32.85 51.01 1.05 55.28 .98 55.28 32.78"/>
      <path d="M101.91,32.85h-4.22s0-20.98,0-20.98l4.14-.03.21,1.95c2.47-2.48,5.69-2.66,8.66-1.65l.02,3.54c-1.59-.38-3.16-.67-4.74-.32-2.15.48-3.98,2.29-3.99,4.59l-.07,12.9Z"/>
      <polygon points="235.55 32.82 231.33 32.87 231.33 11.86 235.55 11.85 235.55 32.82"/>
      <path d="M232.3.19c2.16-.67,4.14.5,4.64,2.45s-.39,3.96-2.54,4.55c-1.7.47-3.62-.4-4.25-1.97-.82-2.05-.07-4.35,2.14-5.04Z"/>
    </g>
  </g>
</svg>