<?xml version="1.0" encoding="UTF-8"?>
<svg id="Layer_2" data-name="Layer 2" xmlns="http://www.w3.org/2000/svg" viewBox="0 0 233.84 27.15">
  <g id="Camada_1" data-name="Camada 1">
    <g>
      <path d="M125.8,12.33c-3.48,2.26-2.47,5.29-4.76,8.91,1.8,2,3.73,3.59,6.33,5.34l-5.75.08-2.78-2.7c-3.96,3.17-9.46,4.1-14.07,1.72-3.11-1.61-4.31-5.51-2.44-8.46,1.22-1.93,3.25-3.09,5.56-4.07l-2.76-3.28c-1.22-1.46-1.52-3.75-.89-5.77,1.13-3.6,6.63-5.14,11.04-3.32,3.07,1.27,4.27,4.84,2.61,7.72-1.12,1.95-3.17,3.14-5.47,4.08l7.44,7.51c.98-1.77,1.57-3.8,1.25-5.44l-2.66-2.31,7.36-.02ZM111.5,11.7c2.77-1.38,4.25-3.8,3.85-6.76-.29-2.11-2.04-3.54-4.36-3.41-1.28.07-2.88.88-3.36,1.74-1.72,3.01.88,5.66,3.87,8.43ZM117.49,22.67l-8.5-8.65c-1.75.6-3.23,2.41-3.69,4.15-.5,1.88-.1,4.05,1.61,5.38,3.13,2.43,7.72,1.7,10.58-.88Z"/>
      <path d="M7.58,15.58l.13,8.22c.02,1.22,2.25,1.49,3.81,2.56-3.94.42-7.56.41-11.51.02,1.57-.92,3.27-1.41,3.95-2.35l.04-19.1c0-1.2-1.26-2.24-2.27-2.29l-1.23-.06c-.25-.01,0-.79.11-1.07l13.54.17c3.67.89,6.2,2.94,6.42,6.31.24,3.64-1.9,6.5-5.9,7.26l7.11,9.35,3.39,1.84-6.45.24-7.96-10.79-3.17-.32ZM13.65,13.43c2.25-.9,3.02-3.12,2.98-4.97-.04-1.69-.87-3.74-2.67-4.57s-4.06-.88-6.34-.8l.02,11.09c2.1.01,4.18-.02,6.01-.75Z"/>
      <path d="M191.24,15.58l.12,8.23c.02,1.21,2.25,1.48,3.81,2.55-3.94.42-7.56.41-11.51.02,1.57-.92,3.26-1.41,3.95-2.35l.04-19.1c0-1.2-1.26-2.23-2.28-2.28l-1.23-.06c-.25-.01,0-.79.11-1.07l13.54.17c3.66.89,6.21,2.94,6.42,6.31.23,3.64-1.9,6.5-5.91,7.26l7.11,9.36,3.39,1.84-6.45.24-7.96-10.79-3.17-.32ZM196.96,13.57c2.53-.83,3.35-3.12,3.34-5.14-.01-1.82-.96-3.92-3.01-4.71-1.78-.68-3.86-.7-6.01-.66l.02,11.12c1.96-.01,3.93-.05,5.66-.62Z"/>
      <path d="M147.32,26.62h-13.03s.98-1.29.98-1.29c2.05.27,2.84-1.09,2.83-2.63l-.08-18.38c0-1.45-2.72-1.17-3.91-2.61,8.14-.01,19.35-1.85,20.08,4.91.35,3.28-1.35,5.78-4.89,6.6,3.47.89,6.06,2.38,6.56,5.33s-.78,5.84-3.83,7.07c-1.2.48-3.26,1-4.72,1ZM147.85,12.28c1.62-.56,2.36-2.68,2.44-3.85.11-1.51-.36-3.44-1.8-4.26-2.04-1.17-4.5-1.17-6.78-1.09v9.79c1.95.04,4.06.13,6.13-.59ZM149.93,24.15c2.26-1.33,2.42-4.26,1.66-6.45-.58-1.68-2.76-3.18-4.96-3.23l-4.97-.11.17,9.9c2.31,1.26,5.7,1.31,8.1-.1Z"/>
      <path d="M168.07,26.94c-6.64-1.09-10.42-6.76-10.14-13.15.3-6.99,5.28-12.41,12.27-12.75,7.93-.38,13.56,5.47,13.22,13.25-.35,8.1-6.87,14.05-15.35,12.65ZM177.55,7.09c-1.4-2.55-3.81-4.07-6.3-4.34-2.78-.3-5.6.49-7.25,3.08-3.15,4.97-2.82,11.92.72,16.64,1.79,2.39,4.69,3.25,7.53,2.95,6.86-.71,9.22-11.19,5.3-18.33Z"/>
      <path d="M35.77,27.13c-7.45-.33-12.16-6.16-11.87-13.22S28.93,1.55,35.83,1.07c8.05-.56,13.87,5.34,13.57,13.19-.29,7.43-5.77,13.22-13.63,12.88ZM43.34,22.27c3.06-4.98,2.73-11.6-.49-16.19-1.71-2.44-4.43-3.49-7.13-3.38-2.43.09-4.95,1.35-6.23,3.86-2.41,4.74-2.17,10.72.67,15.2,1.52,2.4,4.05,3.61,6.48,3.71s5.14-.67,6.7-3.21Z"/>
      <path d="M228.92,26.57l-14.38-19.36v16.37c0,.99,1.6,2,2.82,1.79l1.02,1.22-8.43.06-.05-1.11c1.43.05,2.85-.85,2.86-2.38V5.38c.01-1.58-.68-2.92-2.85-2.61l-.7-1.2,6.06.06,13.98,18.89.11-15.08c0-.71-.58-1.99-1.18-2.26l-3.01-1.39,8.67-.31-.04,1.15c-1.58-.04-2.84.99-2.84,2.39v21.54s-2.05.02-2.05.02Z"/>
      <path d="M83.41,14.51l-5.32.04-.03,8.67c0,.66,1.23,1.89,1.96,1.88l7.65-.11c1.17-.02,2.43-2.19,2.71-3.2l.28-1.02c.05-.2,1.06.06,1.04.26l-.33,5.59h-20.37s.84-1.28.84-1.28c1.67.18,2.62-.92,2.61-2.21l-.1-19.12c0-1.12-2.7-1-3.57-2.4l20.2-.11.46,5.82c-.15.08-.98.34-1.05.11l-.36-1.21c-.56-1.87-1.84-3.2-3.85-3.2l-8.13.02v9.87s4.44.08,4.44.08c.6.01,1.98-.28,2.23-.77l1.54-2.98.31,8.56-.97-.05c-.13,0-.3-3.29-2.22-3.28Z"/>
      <path d="M64.67,13.43c2.94,1.31,4.7,3.46,4.66,6.21s-1.38,5.28-4.16,6.48c-4.74,2.05-10.29.94-14.25-2.7l3.23-3.67c1.29,3.01,3.02,5.44,6.14,5.72,2.55.23,4.79-1.04,5.43-3.26s-.61-4.61-3.02-5.66l-6.82-2.97c-3.02-1.31-4.32-4.32-3.75-7.23s3.12-4.87,6.33-5.19c3.88-.38,7.72.32,10.32,3.51l-3.11,3.12c-.85-1.43-1.55-2.75-2.5-3.79-1.89-2.05-5.51-1.75-7.2.29s-.59,4.99,1.78,6.05l6.92,3.08Z"/>
    </g>
  </g>
</svg>