<?xml version="1.0" encoding="UTF-8"?>
<svg id="Layer_2" data-name="Layer 2" xmlns="http://www.w3.org/2000/svg" viewBox="0 0 242.21 38.95">
  <g id="Camada_1" data-name="Camada 1">
    <g>
      <path d="M74.82,38.53c-1.46,0-2.82.16-4.1-.07-.58-.11-1.24-.92-1.48-1.56-2.18-5.77-4.27-11.58-6.4-17.38-.36-.99-.76-1.96-1.5-2.87v21.76h-5.38V.46c1.48,0,2.88-.14,4.24.07.53.08,1.18.84,1.39,1.42,2.26,6.08,4.44,12.2,6.65,18.3.26.71.54,1.42,1.16,2.11V.57h5.43v37.96Z"/>
      <path d="M169.16,19.49c0-3.37-.04-6.75,0-10.12.08-5.35,3.97-9.31,9.13-9.33,5.17-.03,9.15,3.87,9.22,9.24.09,6.81.04,13.62.02,20.43-.01,5.15-3.59,8.98-9.24,9.19-5.11.19-9.08-4.02-9.12-9.29-.03-3.37,0-6.75,0-10.12ZM174.62,19.3h0c0,3.24-.02,6.49,0,9.73.02,2.84,1.29,4.28,3.72,4.29,2.36,0,3.68-1.37,3.7-4.1.05-6.49.04-12.97,0-19.46-.02-2.75-1.33-4.11-3.7-4.09-2.39.02-3.67,1.39-3.7,4.09-.04,3.18,0,6.36,0,9.54Z"/>
      <path d="M13.8,11.31c-.15-1.04-.19-2-.43-2.9-.54-2-1.76-2.84-3.79-2.75-1.82.09-2.92,1.1-3.33,3.07-.85,4.09.03,5.76,3.85,7.26,1.18.47,2.36.96,3.56,1.39,3.31,1.17,5.13,3.52,5.27,6.98.1,2.46.15,4.99-.28,7.39-.82,4.56-3.9,6.96-8.58,7.17-4.05.19-8.07-2.48-9.27-6.35-.46-1.47-.52-3.06-.79-4.75h5.69c.06.55.11.97.14,1.41.17,2.86,1.33,4.07,3.93,4.06,2.64,0,3.72-1.16,3.85-4.11.24-5.74.2-5.81-5.07-8.03-.35-.15-.7-.31-1.05-.45C.97,18-1.45,11.17,1.86,4.86,3.65,1.43,7.69-.57,11.3.19c4.64.97,7.49,3.92,7.83,8.15.07.94.01,1.88.01,2.98h-5.34Z"/>
      <path d="M146.65,27.84h5.32c.04.59.08,1.09.12,1.58.19,2.57,1.42,3.85,3.76,3.9,2.63.06,3.81-1.02,4.07-3.72.02-.19.02-.38.03-.57.27-5.4.06-5.74-4.92-7.79-.29-.12-.58-.27-.88-.36-7.06-2.18-8.31-7.62-6.59-14.43,1.1-4.35,5.54-7.02,9.67-6.35,5.1.83,8.15,4.26,8.15,9.21,0,.62,0,1.25,0,2.01h-5.25c-.15-.98-.2-1.94-.44-2.84-.54-2.04-1.71-2.87-3.74-2.81-1.83.06-2.95,1.05-3.4,3-.9,3.97.06,5.83,3.79,7.3.95.37,1.87.82,2.84,1.12,4.25,1.29,6.2,4.22,6.15,8.56-.03,1.9,0,3.83-.28,5.7-.8,5.57-4.84,7.67-9.41,7.55-5.08-.13-8.83-4.01-8.99-8.88-.02-.68,0-1.37,0-2.18Z"/>
      <path d="M29.29.51h4.55c2.82,12.54,5.65,25.1,8.53,37.86h-5.46c-.42-2.12-.92-4.33-1.27-6.57-.19-1.18-.71-1.6-1.89-1.53-1.9.12-4.3-.55-5.55.38-1.12.82-1.02,3.35-1.4,5.14-.58,2.74-.56,2.75-3.31,2.75-.82,0-1.64,0-2.72,0,2.87-12.78,5.7-25.35,8.55-38.03ZM31.79,12.42c-.16,0-.31,0-.47,0-.82,4.18-1.63,8.36-2.46,12.62h5.38c-.84-4.32-1.64-8.47-2.45-12.62Z"/>
      <path d="M242.21,38.29c-.4.16-.46.2-.52.2q-4.82.26-5.76-4.42-.75-3.78-4.6-3.78-3.45,0-4.14,3.39c-.05.25-.12.49-.17.74-.93,4.68-.97,4.71-6.24,3.89,2.83-12.58,5.66-25.15,8.47-37.66.35-.09.53-.16.72-.18q3.72-.25,4.55,3.4c2.45,10.86,4.89,21.73,7.33,32.59.14.61.24,1.22.36,1.82ZM231.69,12.59c-.16,0-.31.01-.47.02-.77,4.12-1.55,8.24-2.33,12.4h5.23c-.84-4.28-1.64-8.35-2.44-12.42Z"/>
      <path d="M208.5,5.58h-10.47v11.57h9.15v5.1h-9.24v16.11h-5.4V.6h15.96v4.98Z"/>
      <path d="M83.57,5.66h-6.29V.63h17.92v4.98h-6.16v32.8h-5.47V5.66Z"/>
      <path d="M45.34.54h5.22v37.87h-5.22V.54Z"/>
      <path d="M217.74,38.42h-5.17V.59h5.17v37.82Z"/>
      <path d="M123.16,10.12v6.97h7.26v5.08h-7.15v7.06h-5.5v-6.92h-7.24v-5.14c1.87,0,3.64-.09,5.4.03,1.48.1,1.89-.47,1.8-1.86-.11-1.7-.03-3.4-.03-5.22h5.44Z"/>
    </g>
  </g>
</svg>