<?xml version="1.0" encoding="UTF-8"?>
<svg id="Layer_2" data-name="Layer 2" xmlns="http://www.w3.org/2000/svg" viewBox="0 0 161.67 55.73">
  <g id="Camada_1" data-name="Camada 1">
    <g>
      <path d="M0,55.68V0s161.67.04,161.67.04v55.7S0,55.68,0,55.68ZM13.64,39.72c4.44-.03,8.38-2.24,10.57-6.1,1.28-2.25,1.95-4.76,1.88-7.34-.06-2.24-1.1-4.14-2.89-5.44-2.3-1.68-4.67-2.2-6.64-3.56-1.06-.73-1.56-1.9-1.12-3.14.63-1.8,2.37-3.02,4.21-3.11,1.93-.1,3.57.95,4.55,2.71l3.76-4.5c-.81-1.02-1.73-1.71-2.84-2.3-4.77-2.39-9.99-1.64-13.6,2.3-1.91,2.09-2.98,4.71-3.08,7.53-.16,4.46,3.23,6.38,7.04,7.89,1.04.41,2.05.91,2.82,1.69,1.73,1.77.79,4.97-1.11,6.57-1.79,1.51-4.22,1.41-5.96-.12-1.05-.92-1.55-2.11-1.97-3.54l-4.81,4.05c1.74,4.06,4.72,6.45,9.19,6.42ZM53.04,37.04c1.03,1.38,2.32,2.1,3.87,2.38,2.87.43,5.61-.41,7.9-2.21,4.78-3.84,7-11.89,3.5-17-2.83-4.14-8.78-4.15-12.46-.8l.24-1.76-6.14.02-5.12,32.4h6.15s2.04-13.03,2.04-13.03ZM77.27,28.19c.68-3.06,1.84-5.48,5.07-5.73,1.01-.09,1.9.19,2.78.81l1.64-5.76c-2.99-1.19-6.09-.22-8.09,2.21l.26-2.06h-6.13s-3.37,21.19-3.37,21.19h6.15s1.69-10.67,1.69-10.67ZM93.16,34.79c-2.55-.3-3.13-3.08-2.7-5.52h13.83c.6-3.57.6-7.41-1.91-10.06-1.57-1.6-3.68-2.14-5.89-2.21-4.13-.14-7.87,1.72-10.1,5.23-1.94,3.06-2.81,6.71-2.32,10.33.31,2.3,1.52,4.29,3.42,5.55,1.47.97,3.08,1.32,4.84,1.41,4.8.25,9.26-2.35,11.3-6.67l-5.53-.91-1.26,1.58c-1.05.84-2.24,1.44-3.68,1.27ZM123.77,27.19c.3-1.4.64-2.62,1.37-3.74s2.11-1.81,3.43-1.37c1.41.46,1.44,2.32,1.28,3.93l-2.03,12.85h6.15s2.19-13.98,2.19-13.98c.39-3.14,0-6.67-3.21-7.56s-6.75.24-8.93,2.9c-.91-1.97-2.68-3.05-4.8-3.19-2.38-.16-4.59.62-6.2,2.42l.22-1.78h-6.13s-3.37,21.19-3.37,21.19h6.15s1.89-11.96,1.89-11.96c.47-2.31,1.33-4.82,3.77-4.95,1.14-.06,2.03.6,2.21,1.74.17,1.08.09,2.17-.12,3.28l-1.87,11.9h6.16s1.84-11.66,1.84-11.66ZM145.64,34.73c-2.34-.49-2.75-3.27-2.35-5.46h13.82c.5-2.75.57-5.5-.53-8.03-1.53-3.15-4.14-4.16-7.55-4.23-3.85-.07-7.39,1.66-9.57,4.86s-3.04,6.85-2.58,10.56c.29,2.39,1.54,4.43,3.5,5.72,1.45.93,3.02,1.28,4.75,1.37,4.78.25,9.18-2.25,11.35-6.66l-5.54-.93c-1.21,1.84-3.02,3.27-5.29,2.8ZM47.94,17.66h-6.15s-1.9,12.07-1.9,12.07c-.51,2.61-1.73,4.88-4.52,4.59-1.14-.12-1.99-.84-2.18-2-.15-.91-.11-1.84.04-2.81l1.87-11.85h-6.16s-1.91,11.98-1.91,11.98c-.46,2.73-.5,5.81,1.43,7.8,2.34,2.4,7.01,2.45,10.19,1.68,4.45-1.09,6.75-4.79,7.36-9.2l1.94-12.24Z"/>
      <path d="M63.68,27.52c-.21,4.03-4,7.63-7.34,6.27-1.3-.53-2.12-1.74-2.41-3.14-.63-3.01.87-6.17,3.58-7.65,1.36-.74,3.02-.8,4.28.08,1.43.99,2,2.69,1.91,4.43Z"/>
      <path d="M151.94,25.45h-7.86c.48-1.6,1.51-3.05,3-3.76,1.68-.79,3.43-.27,4.3,1.33.34.73.5,1.48.56,2.43Z"/>
      <path d="M99.12,25.45h-7.89c.53-1.59,1.53-3.11,3.13-3.8,1.76-.76,3.61-.1,4.32,1.66.26.65.37,1.31.44,2.15Z"/>
    </g>
  </g>
</svg>